<?xml version="1.0" encoding="utf-8"?>
<!-- Generator: Adobe Illustrator 24.1.0, SVG Export Plug-In . SVG Version: 6.00 Build 0)  -->
<svg version="1.1" baseProfile="basic" id="Camada_1"
	 xmlns="http://www.w3.org/2000/svg" xmlns:xlink="http://www.w3.org/1999/xlink" x="0px" y="0px" viewBox="0 0 65 65"
	 xml:space="preserve">
<style type="text/css">
	.st0{fill:#FF0000;}
</style>
<g>
	<path class="st0" d="M61.8,48c0-10.7,0-21.4,0-32.1c0-1.5,0-3-0.4-4.5c0-0.4-0.1-0.8-0.4-1.1c-0.1-0.1-0.1-0.2-0.2-0.4
		c-0.1-0.5-0.4-1-0.7-1.4c-0.1-0.1-0.2-0.2-0.2-0.3c-0.1-0.2-0.3-0.4-0.5-0.6c-0.2-0.1-0.2-0.3-0.4-0.5c-0.2-0.2-0.4-0.4-0.5-0.5
		c-0.1-0.1-0.3-0.2-0.5-0.4c-0.2-0.2-0.4-0.3-0.6-0.5c-0.1-0.1-0.2-0.2-0.3-0.2c-0.4-0.3-0.9-0.6-1.4-0.7c-0.1,0-0.3-0.1-0.4-0.2
		c-0.3-0.3-0.7-0.4-1.1-0.4c-1.5-0.4-3-0.4-4.6-0.4c-11.2,0-22.5,0-33.7,0c-1.5,0-3-0.1-4.5,0.2c-0.4,0-0.8,0-1.1,0.3
		c-0.3,0.1-0.6,0.2-0.9,0.3C9.4,4.6,9.3,4.8,9.1,4.8C9,4.9,8.8,4.9,8.7,5c-0.3,0.2-0.7,0.4-1,0.6c-0.1,0-0.1,0.1-0.2,0.1
		C7.3,5.9,7,6.1,6.8,6.3C6.7,6.4,6.5,6.5,6.4,6.6C6.2,6.8,6.1,7,5.9,7.1C5.8,7.3,5.7,7.4,5.6,7.5C5.3,7.8,5.2,8,5,8.3
		c0,0.1-0.1,0.1-0.1,0.2c-0.2,0.3-0.4,0.6-0.6,1C4.2,9.6,4.1,9.7,4.1,9.8C4,10,3.9,10.1,3.9,10.3c-0.1,0.3-0.2,0.6-0.3,0.9
		c-0.3,0.3-0.3,0.7-0.3,1.1c-0.2,1.5-0.2,3-0.2,4.5c0,10.5,0,21.1,0,31.6c0,1.6-0.1,3.3,0.3,4.9c0,0.4,0.1,0.7,0.3,1
		c0.3,0.6,0.6,1.2,0.8,1.7c0,0.3,0.2,0.4,0.3,0.6C5,56.8,5.1,56.9,5.2,57c0.2,0.3,0.5,0.6,0.7,0.9c0.3,0.3,0.7,0.5,0.9,0.8
		c0.1,0,0.1,0.1,0.2,0.1c0.3,0.2,0.5,0.4,0.8,0.6c0.2,0.1,0.4,0.2,0.6,0.3C8.5,59.9,8.6,60,8.8,60c0.3,0.1,0.6,0.2,0.9,0.4
		c0.5,0.2,0.9,0.3,1.4,0.5c0.1,0,0.3,0.1,0.4,0c0.8,0.1,1.5,0.2,2.3,0.2c12.1,0,24.2,0,36.3,0c1.9,0,3.7-0.1,5.4-0.8
		c0.4,0,0.6-0.2,0.9-0.4c0.1,0,0.1-0.1,0.2-0.1c0.3-0.1,0.5-0.3,0.8-0.5c0.3-0.2,0.6-0.5,0.9-0.7c0.2-0.3,0.5-0.4,0.8-0.7
		c0.3-0.4,0.7-0.8,1.1-1.3c0.1-0.2,0.2-0.4,0.3-0.5c0.1-0.1,0.1-0.2,0.2-0.3c0.2-0.5,0.6-1,0.6-1.5c0.1-0.3,0.2-0.6,0.3-0.9
		c0.1-0.1,0.1-0.2,0.2-0.3c0.1-0.3,0-0.6,0.1-0.8C61.9,50.8,61.8,49.4,61.8,48z M34,44.1c-1.6,0-3.1,0-4.7,0c-0.4,0-0.5-0.1-0.7-0.5
		c-0.6-1.7-1.2-3.5-1.8-5.2c-0.1-0.2-0.2-0.3-0.5-0.3c-2.8,0-5.6,0-8.4,0c-0.3,0-0.4,0.1-0.5,0.3c-0.6,1.8-1.1,3.5-1.7,5.3
		c-0.1,0.4-0.3,0.5-0.7,0.5c-1.4,0-2.8,0-4.2,0c-0.6,0-0.6-0.1-0.4-0.7c1.6-4.7,3.3-9.3,4.9-14c1-2.9,2-5.9,3.1-8.8
		c0.2-0.5,0.2-1.1,0.2-1.6c0-0.5,0-0.5,0.5-0.5c1,0,1.9,0,2.9,0c1,0,2,0,3,0c0.3,0,0.4,0.1,0.5,0.4c2.9,8.2,5.9,16.4,8.8,24.6
		C34.6,44,34.5,44.1,34,44.1z M53.2,35.5c0,0.3-0.2,0.4-0.5,0.4c-2.4,0.2-4.9-0.1-6.9,0c-1.8,0-3.1,0-4.4,0c-0.3,0-0.3,0-0.3,0.3
		c0.4,2.2,1.7,3.4,4,3.8c1.4,0.3,2.7,0.1,4.1-0.1c0.7-0.1,1.4-0.3,2.1-0.5c0.4-0.1,0.4-0.1,0.4,0.3c0,1,0,2,0,3c0,0.2,0,0.4,0,0.5
		c0,0.3-0.1,0.5-0.4,0.6c-1.1,0.4-2.2,0.7-3.4,0.8c-1.8,0.2-3.7,0.2-5.5-0.2c-3.2-0.8-5.3-2.8-6.2-6c-1.1-3.7-0.7-7.2,1.5-10.4
		c1.6-2.3,3.9-3.5,6.8-3.6c1.7,0,3.2,0.1,4.7,0.9c2.1,1.1,3.2,2.8,3.8,5C53.5,32.1,53.4,33.8,53.2,35.5z"/>
	<path class="st0" d="M19.1,33.2c1-3.4,2.1-6.7,3-10.1c0.1,0,0.1,0.1,0.1,0.2c0.9,3.2,1.9,6.3,2.9,9.5c0.1,0.4,0.1,0.4-0.3,0.4
		c-1.8,0-3.6,0-5.5,0C19.3,33.2,19.2,33.2,19.1,33.2z"/>
	<path class="st0" d="M44.5,32.3c-1,0-2.1,0-3.1,0c-0.2,0-0.3,0-0.3-0.3c0.3-1.6,1.1-2.7,2.7-3.2c2-0.6,3.9,0.5,4.4,2.5
		c0.2,0.8,0.1,0.9-0.7,0.9c-0.2,0-0.3,0-0.5,0C46.2,32.3,45.3,32.3,44.5,32.3z"/>
</g>
</svg>
