<?xml version="1.0" encoding="utf-8"?>
<!-- Generator: Adobe Illustrator 24.1.0, SVG Export Plug-In . SVG Version: 6.00 Build 0)  -->
<svg version="1.1" baseProfile="basic" id="Camada_1"
	 xmlns="http://www.w3.org/2000/svg" xmlns:xlink="http://www.w3.org/1999/xlink" x="0px" y="0px" viewBox="0 0 65 65"
	 xml:space="preserve">
<style type="text/css">
	.st0{fill:#FF0000;}
</style>
<g>
	<g>
		<path class="st0" d="M52.3,58.7c-13.2,0-26.4,0-39.5,0c-0.2-0.1-0.3-0.2-0.5-0.2C8.9,57.7,7,55.3,7,51.8c0-1.3,0.1-2.6,0-3.9
			c-0.2-3.4-0.5-6.9-2.1-10c-1.1-2.1-2.7-3.6-5.2-3.9c0-1,0-2.1,0-3.1c2.3-0.2,3.9-1.5,4.9-3.4c0.6-1.1,1-2.2,1.4-3.4
			C7,20.5,7.1,16.7,7,12.9c0-2.8,1.6-5.2,4.3-6.1c0.5-0.2,1-0.3,1.5-0.5c13.2,0,26.4,0,39.5,0c0.1,0.1,0.2,0.2,0.3,0.2
			c3.4,0.4,5.6,3.7,5.4,6.9c-0.1,1.2-0.1,2.4,0,3.7c0.2,3.4,0.5,6.9,2.1,10c1.1,2.1,2.7,3.6,5.2,3.8c0,1,0,2.1,0,3.1
			c-2.3,0.2-3.9,1.5-4.9,3.4c-0.6,1.1-1,2.2-1.4,3.4C58,44.5,58,48.3,58,52.1c0,2.8-1.7,5.2-4.3,6.1C53.2,58.4,52.8,58.5,52.3,58.7z
			 M38.2,31.6c2.9-1.2,4.6-3.3,4.7-6c0.1-3.9-3-7-7.2-7.1c-3.7-0.1-7.4,0-11.1-0.1c-1.2,0-1.7,0.5-1.7,1.6c0,8.2,0,16.5,0,24.7
			c0,1.1,0.5,1.6,1.6,1.6c2,0,4.1,0,6.1,0c2.4-0.1,4.9,0,7.3-0.4c3.7-0.6,6.1-3.4,6.3-6.8c0.2-4-1.5-6.2-5.5-7.4
			C38.6,31.8,38.4,31.7,38.2,31.6z"/>
		<g>
			<path class="st0" d="M35.7,34.1c-2.6-0.3-5.3-0.1-8.1-0.1c0,2.8,0,5.7,0,8.6c2.7,0,5.2,0.2,7.8,0c2.6-0.2,4.1-1.9,4.1-4.2
				C39.6,36,38.3,34.4,35.7,34.1z"/>
			<path class="st0" d="M38.3,26.1c0-1.9-1.2-3.5-3.2-3.7c-2.5-0.2-4.9-0.1-7.5-0.1c0,2.6,0,5.2,0,8.1c2.5-0.1,4.8-0.1,7.2-0.4
				C36.9,29.8,38.3,28.1,38.3,26.1z"/>
		</g>
	</g>
</g>
</svg>
