<?xml version="1.0" encoding="utf-8"?>
<!-- Generator: Adobe Illustrator 24.1.0, SVG Export Plug-In . SVG Version: 6.00 Build 0)  -->
<svg version="1.1" baseProfile="basic" id="Camada_1"
	 xmlns="http://www.w3.org/2000/svg" xmlns:xlink="http://www.w3.org/1999/xlink" x="0px" y="0px" viewBox="0 0 65 65"
	 xml:space="preserve">
<style type="text/css">
	.st0{fill:#FF0000;}
</style>
<path class="st0" d="M55.9,58.1L61,1H4l0.1,0.7l5,56.4l0,0.5L32.3,65h0.4l23.2-6.4L55.9,58.1L55.9,58.1z M32.5,13.5h16.6l-0.5,5.8
	l-16.3,7.2l0.3,1.3h15.3l-1.8,20.1l-13.6,3.8l-13.6-3.8L18,38.3h5.6l0.5,4.9l0,0.5l8.3,2.2h0.4l8.2-2.3l0-0.5l0.8-9l0.1-0.7H17.5
	L17,27.5l16.9-7.2L33.7,19H16.3l-0.5-5.5L32.5,13.5L32.5,13.5z"/>
</svg>
