<?xml version="1.0" encoding="utf-8"?>
<!-- Generator: Adobe Illustrator 24.1.0, SVG Export Plug-In . SVG Version: 6.00 Build 0)  -->
<svg version="1.1" baseProfile="basic" id="Camada_1"
	 xmlns="http://www.w3.org/2000/svg" xmlns:xlink="http://www.w3.org/1999/xlink" x="0px" y="0px" viewBox="0 0 65 65"
	 xml:space="preserve">
<style type="text/css">
	.st0{fill-rule:evenodd;clip-rule:evenodd;fill:#FF0000;}
</style>
<path class="st0" d="M32.5,4.2C16.9,4.2,4.2,16.9,4.2,32.5s12.7,28.3,28.3,28.3c15.6,0,28.3-12.7,28.3-28.3S48.1,4.2,32.5,4.2z
	 M42.6,19.7c3.7,0,6.5,1.3,7.9,3.6c1.8,3.1,0.5,7.6-3.3,12c0,0,0,0,0,0c-0.2,0.2-0.6,0.3-0.8,0.1c-0.2-0.2-0.3-0.6-0.1-0.8
	c3.5-4.1,4.6-8.1,3.1-10.7c-1.1-1.9-3.5-2.9-6.9-3c-0.3,0-0.6-0.3-0.6-0.6C42,20,42.3,19.7,42.6,19.7z M32.4,10.6
	c1.6,0,2.8,1.3,2.8,2.8c0,0,0,0.1,0,0.1c4.7,2.4,7.9,10.6,7.9,20.1c0,3.9-0.5,7.7-1.6,10.9h0c0,0,0,0,0,0c-0.1,0.3-0.4,0.5-0.7,0.4
	c-0.3-0.1-0.5-0.4-0.4-0.7c1-3.1,1.5-6.8,1.5-10.6c0-9-3-16.7-7.1-19c-0.5,0.9-1.4,1.5-2.5,1.5c-1.6,0-2.8-1.3-2.8-2.8
	C29.6,11.9,30.9,10.6,32.4,10.6z M14.3,23.2c1.8-3.1,6.4-4.2,12.1-3.2c0.3,0.1,0.5,0.4,0.5,0.7c-0.1,0.3-0.4,0.5-0.7,0.5
	c-5.3-1-9.4,0-10.9,2.6c-1.1,1.9-0.8,4.6,0.9,7.6c0,0,0,0,0,0c0.2,0.3,0.1,0.6-0.2,0.8c-0.3,0.2-0.6,0.1-0.8-0.2
	C13.4,28.7,13,25.6,14.3,23.2z M14.9,46.9c-1.6,0-2.8-1.3-2.8-2.8c0-1.1,0.6-2,1.5-2.5c-0.4-5.3,5.1-12.3,13.5-17.2
	c3.5-2,7.1-3.4,10.5-4.2c0,0,0,0,0,0c0.3-0.1,0.6,0.1,0.7,0.5c0.1,0.3-0.1,0.6-0.5,0.7c-3.3,0.7-6.8,2.1-10.2,4
	C19.8,30,14.6,36.6,14.7,41.2c0.1,0,0.1,0,0.2,0c1.6,0,2.8,1.3,2.8,2.8C17.8,45.6,16.5,46.9,14.9,46.9z M32.8,35.7
	c-1.1,0.2-2.2-0.5-2.4-1.6C30.2,33,30.9,32,32,31.7c1.1-0.2,2.2,0.5,2.4,1.6C34.6,34.4,33.9,35.5,32.8,35.7z M39.4,49.6
	c-1.9,3.2-4.3,5-7,5c-3.6,0-6.8-3.4-8.8-8.9h0c0,0,0,0,0,0c-0.1-0.3,0.1-0.6,0.4-0.7c0.3-0.1,0.6,0.1,0.7,0.4
	c1.8,5.1,4.7,8.1,7.7,8.1c2.2,0,4.3-1.5,6-4.4c0,0,0,0,0,0c0.2-0.3,0.5-0.4,0.8-0.2C39.5,49,39.6,49.3,39.4,49.6z M49.8,46.9
	c-0.6,0-1.2-0.2-1.7-0.5C43.7,49,35.1,47.6,27,43c-3.4-2-6.5-4.4-8.8-6.9c0,0,0,0,0,0c-0.2-0.2-0.2-0.6,0-0.8c0.2-0.2,0.6-0.2,0.8,0
	c2.2,2.5,5.2,4.8,8.5,6.7c7.6,4.4,15.7,5.7,19.8,3.5C47.2,45,47,44.5,47,44c0-1.6,1.3-2.8,2.8-2.8s2.8,1.3,2.8,2.8
	C52.7,45.6,51.4,46.9,49.8,46.9z"/>
</svg>
