<?xml version="1.0" encoding="utf-8"?>
<!-- Generator: Adobe Illustrator 24.1.0, SVG Export Plug-In . SVG Version: 6.00 Build 0)  -->
<svg version="1.1" baseProfile="basic" id="Camada_1"
	 xmlns="http://www.w3.org/2000/svg" xmlns:xlink="http://www.w3.org/1999/xlink" x="0px" y="0px" viewBox="0 0 65 65"
	 xml:space="preserve">
<style type="text/css">
	.st0{fill:#FF0000;}
</style>
<g>
	<path class="st0" d="M34.1,60.9c-1.1,0-2.2,0-3.3,0c-0.7-0.1-1.5-0.2-2.2-0.3C17.2,59,7.9,50.7,5.1,39.6c-0.5-1.8-0.7-3.6-1-5.4
		c0-1.1,0-2.2,0-3.3c0.1-0.4,0.2-0.7,0.2-1.1c1-11.4,9.1-21.3,20.2-24.4c2.1-0.6,4.3-0.9,6.4-1.3c1.1,0,2.2,0,3.3,0
		c0.3,0.1,0.6,0.2,1,0.2c11.7,1.1,21.3,8.9,24.6,20.3c0.6,2,0.8,4.2,1.2,6.3c0,1.1,0,2.2,0,3.3c-0.1,0.4-0.2,0.7-0.2,1.1
		c-1,11.6-9.6,21.8-20.9,24.6C37.9,60.3,36,60.6,34.1,60.9z M32.5,7.4C18.7,7.4,7.4,18.7,7.4,32.5c0,13.7,11.2,25,25,25.1
		c13.7,0.1,25.1-11.3,25.1-25.1C57.6,18.7,46.2,7.4,32.5,7.4z"/>
	<path class="st0" d="M19.6,33c0,5.1,3.2,6.7,10.3,5.3c0.8,2,0.8,2.1-1.2,2.5c-1.8,0.3-3.7,0.6-5.5,0.3c-4.6-0.7-7.2-5-6.3-10
		c0.6-3.5,2.3-6.2,5.9-7c4.5-1.1,8.2,1.6,8.6,6.2c0.1,0.8,0,1.7,0,2.7C27.4,33,23.5,33,19.6,33z M28.5,30.8c0.1-2.8-1.5-4.8-3.9-5
		c-2.6-0.2-4.7,2-5,5C22.6,30.8,25.6,30.8,28.5,30.8z"/>
	<path class="st0" d="M48.2,40.9c-0.9,0-1.6,0.1-2.3,0c-0.5-0.1-1.2-0.4-1.5-0.8c-1.3-1.9-2.6-3.8-3.9-5.9c-1,1.6-2.2,3.1-3,4.8
		c-1,1.9-2.4,2.2-4.4,1.7c1.9-2.8,3.8-5.5,5.8-8.4c-1.8-2.6-3.6-5.3-5.5-7.9c2.2-0.7,3-0.4,4.2,1.5c1,1.5,2,3,3.1,4.7
		c1-1.5,2-2.9,2.8-4.4c0.9-1.9,2.3-2.3,4.3-1.8c-0.5,0.7-0.9,1.4-1.4,2c-1.2,1.7-2.4,3.4-3.7,5.1c-0.4,0.5-0.4,0.9,0,1.4
		c1.5,2.2,3,4.4,4.5,6.7C47.6,39.9,47.8,40.3,48.2,40.9z"/>
</g>
</svg>
