<?xml version="1.0" encoding="utf-8"?>
<!-- Generator: Adobe Illustrator 24.1.0, SVG Export Plug-In . SVG Version: 6.00 Build 0)  -->
<svg version="1.1" baseProfile="basic" id="Camada_1"
	 xmlns="http://www.w3.org/2000/svg" xmlns:xlink="http://www.w3.org/1999/xlink" x="0px" y="0px" viewBox="0 0 65 65"
	 xml:space="preserve">
<style type="text/css">
	.st0{fill:none;stroke:#FF0000;stroke-width:2;stroke-linecap:round;stroke-linejoin:round;}
</style>
<path class="st0" d="M14.2,13.6c0-2.6,1-5.2,2.9-7c1.9-1.9,4.4-2.9,7-2.9H34v19.8h-9.9c-2.6,0-5.2-1-7-2.9
	C15.2,18.7,14.2,16.2,14.2,13.6z"/>
<path class="st0" d="M34,3.7h9.9c1.3,0,2.6,0.3,3.8,0.8c1.2,0.5,2.3,1.2,3.2,2.1c0.9,0.9,1.7,2,2.1,3.2c0.5,1.2,0.8,2.5,0.8,3.8
	s-0.3,2.6-0.8,3.8c-0.5,1.2-1.2,2.3-2.1,3.2c-0.9,0.9-2,1.7-3.2,2.1c-1.2,0.5-2.5,0.8-3.8,0.8H34V3.7z"/>
<path class="st0" d="M34,33.4c0-1.3,0.3-2.6,0.8-3.8c0.5-1.2,1.2-2.3,2.1-3.2c0.9-0.9,2-1.7,3.2-2.1c1.2-0.5,2.5-0.8,3.8-0.8
	c1.3,0,2.6,0.3,3.8,0.8c1.2,0.5,2.3,1.2,3.2,2.1c0.9,0.9,1.7,2,2.1,3.2c0.5,1.2,0.8,2.5,0.8,3.8c0,1.3-0.3,2.6-0.8,3.8
	c-0.5,1.2-1.2,2.3-2.1,3.2c-0.9,0.9-2,1.7-3.2,2.1c-1.2,0.5-2.5,0.8-3.8,0.8c-1.3,0-2.6-0.3-3.8-0.8c-1.2-0.5-2.3-1.2-3.2-2.1
	c-0.9-0.9-1.7-2-2.1-3.2C34.3,36,34,34.7,34,33.4L34,33.4z"/>
<path class="st0" d="M14.2,53.3c0-2.6,1-5.2,2.9-7c1.9-1.9,4.4-2.9,7-2.9H34v9.9c0,2.6-1,5.2-2.9,7c-1.9,1.9-4.4,2.9-7,2.9
	c-2.6,0-5.2-1-7-2.9C15.2,58.4,14.2,55.9,14.2,53.3z"/>
<path class="st0" d="M14.2,33.4c0-2.6,1-5.2,2.9-7c1.9-1.9,4.4-2.9,7-2.9H34v19.8h-9.9c-2.6,0-5.2-1-7-2.9
	C15.2,38.6,14.2,36,14.2,33.4z"/>
</svg>
