<?xml version="1.0" encoding="utf-8"?>
<!-- Generator: Adobe Illustrator 24.1.0, SVG Export Plug-In . SVG Version: 6.00 Build 0)  -->
<svg version="1.1" baseProfile="basic" id="Camada_1"
	 xmlns="http://www.w3.org/2000/svg" xmlns:xlink="http://www.w3.org/1999/xlink" x="0px" y="0px" viewBox="0 0 65 65"
	 xml:space="preserve">
<style type="text/css">
	.st0{fill:#FF0000;}
</style>
<path class="st0" d="M62.1,34.8c-0.1,0.9-0.2,1.8-0.3,2.7c-0.5,4-1.9,7.8-4.1,11.2c-2.4,3.8-5.5,7-9.3,9.5c-2,1.3-4.1,2.3-6.4,3
	c-1.2,0.4-2.1-0.2-2.1-1.5c0-2.6,0-5.2,0-7.7c0-1.6-0.2-3.1-1-4.5c-0.3-0.4-0.6-0.8-0.9-1.2c1.2-0.2,2.3-0.4,3.4-0.7
	c3-0.8,5.7-2.1,7.6-4.7c1.4-1.9,2-4.2,2.2-6.5c0.2-1.8,0.3-3.6-0.1-5.4c-0.4-1.8-1.2-3.4-2.4-4.8c-0.3-0.3-0.4-0.6-0.2-1.1
	c0.8-2.4,0.5-4.7-0.4-7.1c-0.1-0.1-0.3-0.3-0.4-0.3c-1-0.2-2,0.1-3,0.6c-1.5,0.7-2.9,1.5-4.4,2.3c-0.2,0.1-0.6,0.2-0.9,0.1
	c-4.6-1.2-9.3-1.2-13.9,0c-0.3,0.1-0.7,0-0.9-0.2c-1.9-1.2-3.9-2.1-6-2.7c0,0-0.1,0-0.1,0c-1.4-0.3-1.6-0.1-2,1.2
	c-0.6,2.1-0.7,4.2,0,6.4c0.1,0.2,0,0.5-0.1,0.6c-2.4,2.8-3,6.1-2.7,9.6c0.2,2.1,0.7,4.2,1.6,6.2c1.3,2.7,3.6,4.3,6.3,5.3
	c1.7,0.6,3.5,0.9,5.3,1.4c0-0.1,0,0,0,0c-0.9,1-1.4,2.1-1.7,3.4c0,0.2-0.1,0.4-0.3,0.5c-2.1,0.8-4.1,1.2-6.2-0.1
	c-0.9-0.6-1.6-1.4-2.1-2.3c-0.9-1.5-2.1-2.5-3.7-3c-0.6-0.2-1.2-0.1-1.9-0.1c-0.4,0-0.6,0.3-0.3,0.7c0.3,0.3,0.5,0.7,0.9,0.9
	c1.6,0.9,2.4,2.3,3.1,3.9c0.4,0.9,0.8,1.9,1.6,2.6c1.3,1.1,2.8,1.6,4.4,1.6c1.4,0.1,2.8,0,4.2,0c0,0,0,0.1,0,0.3
	c0,1.6,0,3.1,0.1,4.7c0,1.5-0.9,2.2-2.4,1.7c-7.5-2.6-13-7.5-16.7-14.5c-2.8-5.3-3.6-10.9-3-16.8c0.7-6.2,3.1-11.6,7.2-16.2
	c4.3-4.8,9.6-8.1,15.9-9.3c9.2-1.9,17.6,0,25,5.9c5.6,4.5,9,10.3,10.4,17.3c0.2,1,0.3,2.1,0.4,3.1c0,0.2,0.1,0.4,0.1,0.6
	C62.1,32.5,62.1,33.7,62.1,34.8z"/>
</svg>
