<?xml version="1.0" encoding="utf-8"?>
<!-- Generator: Adobe Illustrator 24.1.0, SVG Export Plug-In . SVG Version: 6.00 Build 0)  -->
<svg version="1.1" baseProfile="basic" id="Camada_1"
	 xmlns="http://www.w3.org/2000/svg" xmlns:xlink="http://www.w3.org/1999/xlink" x="0px" y="0px" viewBox="0 0 65 65"
	 xml:space="preserve">
<style type="text/css">
	.st0{fill:#FF0000;}
</style>
<g>
	<path class="st0" d="M60,49.1c0-1.5,0-3,0-4.5c0-2.7,0-5.5,0-8.2c0-3.3,0-6.7,0-10c0-3.5,0-7,0-10.5c0-0.9,0-1.7-0.2-2.6
		c0.1-0.2,0-0.5-0.1-0.7c-0.1-0.4-0.2-0.8-0.5-1.1c-0.2-0.3-0.3-0.7-0.5-1c0-0.3-0.2-0.5-0.4-0.7c0,0,0-0.1-0.1-0.1
		c0-0.1-0.1-0.2-0.1-0.3C58,9.4,57.8,9.2,57.7,9c0,0-0.1-0.1-0.1-0.1c-0.1-0.1-0.1-0.2-0.2-0.2c0,0-0.1-0.1-0.1-0.1
		c-0.2-0.2-0.4-0.4-0.6-0.6c-0.1-0.1-0.2-0.2-0.3-0.3c-0.5-0.4-1-0.7-1.6-1c0,0,0,0,0,0c0,0,0,0,0,0c-0.4-0.1-0.7-0.3-1.1-0.4
		c-0.1,0-0.2-0.1-0.3-0.1c-0.2,0-0.3-0.1-0.5-0.1c-0.3-0.1-0.5-0.1-0.8-0.2c-0.4-0.1-0.7-0.1-1.1-0.1c-0.3,0-0.6,0-0.9,0
		c-0.3,0-0.6,0-0.9,0c-0.3,0-0.6,0-0.9,0c-0.3,0-0.6,0-0.9,0c-0.3,0-0.6,0-0.9,0c-0.3,0-0.6,0-0.9,0c-0.3,0-0.6,0-0.9,0
		c-0.3,0-0.6,0-0.9,0c-0.3,0-0.6,0-0.9,0c-0.3,0-0.6,0-0.9,0c-0.3,0-0.6,0-0.9,0c-0.3,0-0.6,0-0.9,0c-0.3,0-0.6,0-0.9,0
		c-0.3,0-0.6,0-0.9,0c-0.3,0-0.6,0-0.9,0c-0.3,0-0.6,0-0.9,0c-0.3,0-0.6,0-0.9,0c-0.3,0-0.6,0-0.9,0c-0.3,0-0.6,0-0.9,0
		c-0.3,0-0.6,0-0.9,0c-0.3,0-0.6,0-0.9,0c-0.3,0-0.6,0-0.9,0c-0.3,0-0.6,0-0.9,0c-0.3,0-0.6,0-0.9,0c-0.3,0-0.6,0-0.9,0
		c-0.3,0-0.6,0-0.9,0c-0.3,0-0.6,0-0.9,0c-0.3,0-0.6,0-0.9,0c-0.3,0-0.6,0-0.9,0c-0.3,0-0.6,0-0.9,0c-0.3,0-0.6,0-0.9,0
		c-0.3,0-0.6,0-0.9,0c-0.3,0-0.6,0-0.9,0c-0.3,0-0.6,0-0.9,0c-0.3,0-0.6,0-0.9,0c-0.3,0-0.6,0-0.9,0c-0.3,0-0.6,0-0.9,0
		c-0.3,0-0.6,0-0.9,0c-0.3,0-0.6,0-0.9,0c-0.3,0-0.6,0-0.9,0c-0.3,0-0.6,0.1-0.9,0.1c-0.3,0.1-0.6,0.1-0.9,0.2C12.4,5.9,12.2,6,12,6
		c-0.1,0-0.2,0.1-0.4,0.1c-0.3,0.1-0.6,0.2-0.8,0.3C10.5,6.6,10.2,6.8,9.9,7C9.9,7,9.8,7,9.8,7C9.5,7.2,9.2,7.4,9,7.6
		c0,0-0.1,0.1-0.1,0.1C8.8,7.7,8.6,7.8,8.6,7.9C8.4,8.1,8.2,8.2,8,8.4c0,0-0.1,0.1-0.1,0.1C7.8,8.6,7.7,8.7,7.7,8.7
		c0,0-0.1,0.1-0.1,0.1C7.4,9.1,7.2,9.2,7,9.5C7,9.6,6.9,9.6,6.8,9.7c-0.2,0.3-0.4,0.6-0.6,0.9c0,0.1-0.1,0.2-0.1,0.2
		c-0.2,0.2-0.3,0.5-0.4,0.7c-0.1,0.3-0.2,0.6-0.3,0.9C5.2,13.2,5.1,14,5,14.7c0,0.1,0,0.3,0,0.4c0,0.7,0,1.3,0,2c0,0.1,0,0.2,0,0.3
		c0,2.5,0,5,0,7.5c0,2.8,0,5.6,0,8.4c0,2.1,0,4.2,0,6.3c0,2.3,0,4.5,0,6.8c0,0.9,0,1.8,0,2.7c0,0.6,0,1.2,0.1,1.8
		c0,0.3,0.1,0.6,0.1,0.9c0,0,0,0.1,0,0.1c0.1,0.2,0.2,0.5,0.3,0.8c0.1,0.4,0.3,0.8,0.4,1.1c0.1,0.3,0.3,0.6,0.5,0.9
		c0.2,0.2,0.3,0.4,0.5,0.7c0,0,0.1,0.1,0.1,0.1c0.1,0.1,0.1,0.1,0.2,0.2c0.2,0.2,0.4,0.5,0.6,0.7c0.1,0.1,0.2,0.2,0.3,0.3
		c0.2,0.2,0.4,0.3,0.6,0.5c0.1,0.1,0.2,0.1,0.3,0.2c0,0,0.1,0.1,0.1,0.1c0.2,0.1,0.5,0.3,0.7,0.5c0.3,0.2,0.6,0.3,1,0.5
		c0.4,0.2,0.7,0.3,1.1,0.4c0.5,0.2,1,0.3,1.5,0.4c0,0,0.1,0,0.1,0c0,0,0.1,0,0.1,0c0.3,0,0.6,0.1,0.9,0.1c0.3,0,0.6,0,0.9,0
		c0.3,0,0.6,0,0.9,0c0.3,0,0.6,0,0.9,0c0.3,0,0.6,0,0.9,0c0.3,0,0.6,0,0.9,0c0.3,0,0.6,0,0.9,0c0.3,0,0.6,0,0.9,0c0.3,0,0.6,0,0.9,0
		c0.3,0,0.6,0,0.9,0c0.3,0,0.6,0,0.9,0c0.3,0,0.6,0,0.9,0c0.3,0,0.6,0,0.9,0c0.3,0,0.6,0,0.9,0c0.3,0,0.6,0,0.9,0c0.3,0,0.6,0,0.9,0
		c0.3,0,0.6,0,0.9,0c0.3,0,0.6,0,0.9,0c0.3,0,0.6,0,0.9,0c0.3,0,0.6,0,0.9,0c0.3,0,0.6,0,0.9,0c0.3,0,0.6,0,0.9,0c0.3,0,0.6,0,0.9,0
		c0.3,0,0.6,0,0.9,0c0.3,0,0.6,0,0.9,0c0.3,0,0.6,0,0.9,0c0.3,0,0.6,0,0.9,0c0.3,0,0.6,0,0.9,0c0.3,0,0.6,0,0.9,0c0.3,0,0.6,0,0.9,0
		c0.3,0,0.6,0,0.9,0c0.3,0,0.6,0,0.9,0c0.3,0,0.6,0,0.9,0c0.3,0,0.6,0,0.9,0c0.3,0,0.6,0,0.9,0c0.3,0,0.6,0,0.9,0c0.3,0,0.6,0,0.9,0
		c0.3,0,0.6,0,0.9,0c0.3,0,0.6,0,0.9,0c0.3,0,0.6,0,0.9,0c0.3,0,0.6,0,0.9,0c0.3,0,0.5-0.1,0.8-0.1c0.2-0.1,0.5-0.1,0.7-0.1
		c0.1,0,0.3-0.1,0.4-0.1c0.3-0.1,0.6-0.2,0.9-0.3c0.3-0.1,0.5-0.2,0.7-0.3c0.2-0.1,0.3-0.2,0.5-0.2c0.2-0.1,0.4-0.2,0.5-0.3
		c0.3-0.2,0.6-0.4,0.8-0.6c0.1,0,0.1-0.1,0.2-0.1c0.3-0.2,0.6-0.5,0.8-0.7c0,0,0.1-0.1,0.1-0.1c0.3-0.3,0.5-0.6,0.7-0.9
		c0-0.1,0.1-0.1,0.1-0.2c0.2-0.3,0.4-0.5,0.5-0.8c0.1-0.3,0.3-0.5,0.4-0.7c0-0.1,0.1-0.1,0.1-0.2c0.1-0.3,0.2-0.5,0.3-0.8
		c0.1-0.3,0.2-0.6,0.3-1c0-0.3,0.2-0.6,0.1-0.9C60,50.3,60,49.7,60,49.1z M38.6,43.6c-1.5,0-2.9,0-4.4,0c-0.4,0-0.5-0.1-0.6-0.5
		c-0.6-1.6-1.1-3.3-1.7-4.9c-0.1-0.2-0.2-0.3-0.5-0.3c-2.6,0-5.2,0-7.8,0c-0.3,0-0.4,0.1-0.5,0.4c-0.5,1.6-1,3.2-1.5,4.7
		c-0.2,0.6-0.2,0.6-0.8,0.6c-1.2,0-2.5,0-3.7,0c-0.6,0-0.6-0.1-0.4-0.6c2.4-6.9,4.8-13.8,7.2-20.7c0.3-0.8,0.5-1.6,0.5-2.5
		c0-0.3,0.1-0.4,0.4-0.4c0.9,0,1.9,0,2.8,0c0.9,0,1.8,0,2.7,0c0.3,0,0.5,0.1,0.6,0.4c2.7,7.7,5.5,15.5,8.2,23.2
		C39.1,43.5,39,43.6,38.6,43.6z M46.5,32.7c0,0.6,0,1.1,0,1.7c0,2.8,0,5.7,0,8.5c0,0.6,0,0.6-0.6,0.6c-1.3,0-2.7,0-4,0
		c-0.4,0-0.5-0.1-0.5-0.5c0-0.2,0-0.4,0-0.6c0-5.5,0-11,0-16.5c0-0.1,0-0.3,0-0.4c0-0.3,0.1-0.4,0.4-0.4c1.4,0,2.9,0,4.3,0
		c0.4,0,0.4,0.2,0.4,0.5C46.5,28.1,46.5,30.4,46.5,32.7z M44,23.3c-1.7,0-2.8-1.2-2.8-2.9c0-1.7,1.2-2.9,2.9-2.9
		c1.8,0,2.9,1.1,2.9,2.8C46.9,22.2,45.7,23.3,44,23.3z"/>
	<path class="st0" d="M27.5,23.9c0.3,0.9,0.5,1.8,0.8,2.7c0.6,2.1,1.3,4.1,1.9,6.2c0.1,0.4,0,0.4-0.3,0.4c-1.7,0-3.3,0-5,0
		c-0.3,0-0.4-0.1-0.3-0.4c0.9-2.8,1.8-5.5,2.6-8.4c0-0.2,0.1-0.3,0.1-0.5C27.4,24,27.4,23.9,27.5,23.9z"/>
</g>
</svg>
