<?xml version="1.0" encoding="utf-8"?>
<!-- Generator: Adobe Illustrator 24.1.0, SVG Export Plug-In . SVG Version: 6.00 Build 0)  -->
<svg version="1.1" baseProfile="basic" id="Camada_1"
	 xmlns="http://www.w3.org/2000/svg" xmlns:xlink="http://www.w3.org/1999/xlink" x="0px" y="0px" viewBox="0 0 65 65"
	 xml:space="preserve">
<style type="text/css">
	.st0{fill:#FF0000;}
</style>
<g>
	<path class="st0" d="M32.5,4.8C17.3,4.8,4.8,17.2,4.8,32.4c0,15.3,12.4,27.8,27.7,27.8c15.3,0,27.7-12.4,27.8-27.7
		C60.3,17.3,47.8,4.8,32.5,4.8z M32.5,57.4c-14,0-24.9-11-24.9-24.9c0-13.9,11-24.7,24.9-24.9c13.9,0.2,24.9,11.1,24.9,25
		C57.4,46.4,46.4,57.4,32.5,57.4z"/>
	<path class="st0" d="M52.4,30.5c0-0.3,0-0.7-0.2-1c0-0.7-0.2-1.4-0.4-2.1c-0.2-0.8-0.4-1.5-0.7-2.2c-0.2-0.4-0.2-0.9-0.6-1.3
		c-0.2-0.6-0.6-1.2-1-1.8l0,0c-0.4-0.7-0.8-1.4-1.4-1.9c-0.7-0.8-1.3-1.7-2.3-2.3c-0.9-0.8-1.7-1.6-2.8-2.1c-1.1-0.6-2-1.3-3.3-1.6
		c-0.9-0.3-1.9-0.7-2.8-0.9c-3.9-0.8-7.7-0.6-11.3,0.9c0,0-0.4,0-0.2,0.3c0.6,0.5,1.1,1.1,1.7,1.8c0.4,0.6,0.7,1.3,1,1.9
		c0.1,0.7,0.2,1.5,0.3,2.2c-0.1,0.6-0.1,1.3-0.2,1.9c-0.2,0.4-0.3,0.9-0.4,1.3c-0.4,0.6-0.8,1.3-1.2,1.9l0,0
		c-0.7,0.7-1.5,1.3-2.3,1.8c-2.5,1.2-5,1.1-7.4-0.2c-0.8-0.6-1.7-1.2-2.3-2.1c-0.3,0.9-0.6,1.6-0.8,2.4c-0.2,0.7-0.5,1.4-0.5,2.2
		c-0.2,0.6-0.2,1.2-0.2,1.8c0,0,0,0.1,0,0.1l0,0c-0.2,1.3-0.1,2.5,0.1,3.8c0,0.7,0.1,1.3,0.4,1.9c0.2,0.7,0.3,1.4,0.7,2.1
		c0.2,0.7,0.5,1.4,0.9,2.1c0.2,0.6,0.6,1.2,1,1.8c0.4,0.7,0.9,1.3,1.4,2c0.7,0.8,1.3,1.6,2.2,2.2c0.8,0.8,1.8,1.6,2.9,2.1
		c0.3,0.2,0.5,0.4,0.8,0.5c4.2,2.2,8.7,2.9,13.3,2c2.2-0.4,4.2-1.2,6.1-2.4c1.2-0.6,2.2-1.3,3.1-2.2c0.9-0.6,1.5-1.4,2.1-2.2
		c0,0,0,0,0,0c0.6-0.7,1.2-1.4,1.6-2.2c0.4-0.4,0.6-0.9,0.8-1.5c0.4-0.7,0.7-1.4,0.9-2.2c0.3-0.6,0.5-1.3,0.6-1.9
		c0.2-0.7,0.4-1.4,0.4-2.1c0.2-0.8,0.2-1.7,0.2-2.5C52.5,31.9,52.6,31.2,52.4,30.5z"/>
</g>
</svg>
