<?xml version="1.0" encoding="utf-8"?>
<!-- Generator: Adobe Illustrator 24.1.0, SVG Export Plug-In . SVG Version: 6.00 Build 0)  -->
<svg version="1.1" baseProfile="basic" id="Camada_1"
	 xmlns="http://www.w3.org/2000/svg" xmlns:xlink="http://www.w3.org/1999/xlink" x="0px" y="0px" viewBox="0 0 65 65"
	 xml:space="preserve">
<style type="text/css">
	.st0{fill-rule:evenodd;clip-rule:evenodd;fill:#FF0000;}
</style>
<path class="st0" d="M0,0h65v65H0V0z M49.7,54.5c-3,0-4.7-1.6-6-3.7l-5,2.9c1.8,3.5,5.5,6.2,11.1,6.2c5.8,0,10.1-3,10.1-8.5
	c0-5.1-2.9-7.4-8.1-9.6l-1.5-0.7c-2.6-1.1-3.8-1.9-3.8-3.7c0-1.5,1.1-2.6,2.9-2.6c1.8,0,2.9,0.7,3.9,2.6l4.8-3.1
	c-2-3.5-4.8-4.9-8.7-4.9c-5.5,0-8.9,3.5-8.9,8.1c0,5,2.9,7.3,7.3,9.2l1.5,0.7c2.8,1.2,4.4,2,4.4,4.1C53.8,53.2,52.2,54.5,49.7,54.5z
	 M26,54.5c-2.1,0-3-1.4-3.9-3.1l-5,3c1.4,3,4.3,5.6,9.2,5.6c5.4,0,9.1-2.9,9.1-9.2V29.8h-6.1v20.8C29.3,53.7,28,54.5,26,54.5
	L26,54.5z"/>
</svg>
