<?xml version="1.0" encoding="utf-8"?>
<!-- Generator: Adobe Illustrator 24.1.0, SVG Export Plug-In . SVG Version: 6.00 Build 0)  -->
<svg version="1.1" baseProfile="basic" id="Camada_1"
	 xmlns="http://www.w3.org/2000/svg" xmlns:xlink="http://www.w3.org/1999/xlink" x="0px" y="0px" viewBox="0 0 65 65"
	 xml:space="preserve">
<style type="text/css">
	.st0{fill:#FF0000;}
</style>
<g>
	<path class="st0" d="M61.7,23c0.2-0.4,0.3-0.9,0.5-1.3c0.1-0.3,0.3-0.4,0.6-0.3c0.9,0.1,1.3,0.7,1,1.5c-0.3,0.9-0.8,1.8-1.2,2.6
		c-0.5,0.8-1.4,1.1-2.3,1.3c-1.8,0.4-3.7,0.8-5.5,1.2c-2.5,0.5-5,1.1-7.5,1.7c-1,0.2-1.2,0.7-0.8,1.6c0.1,0.3,0.3,0.6,0.4,0.9
		c-0.9,0-1.8,0.1-2.6,0.1c-1.6,0.1-3.2,0-4.7,0.5c-1.4,0.4-2.6,1.2-3.4,2.5c-0.2,0.3-0.5,0.5-0.9,0.8c0-3,0-5.9,0-8.8
		c-0.2,0-0.4,0-0.6,0c-1.5,0-2.9,0-4.4,0c-0.3,0-0.5,0.1-0.6,0.4c-0.6,1.2-1.3,2.4-1.9,3.6c-0.1,0.2-0.2,0.3-0.3,0.6
		c-0.5-0.9-1-1.8-1.4-2.6c-0.3-0.6-0.6-1.1-0.9-1.7c-0.1-0.1-0.2-0.2-0.4-0.3c-1.6,0-3.3,0-5,0c0,1.5,0,3,0,4.6
		c-0.5-0.6-0.9-1-1.3-1.4c-1.7-1.9-3.9-3-6.5-3.5c-3.3-0.7-6.6-0.3-9.8,0.6c-0.3,0.1-0.7,0.1-1.1,0.1c0.4-0.4,0.8-0.7,1.2-1.1
		c3.9-3.2,8-5.8,12.7-7.6c3.5-1.4,7.1-2.1,10.9-1.9c0.3,0,0.5,0.1,0.5,0.5c0.2,2.7,1.5,4.9,3.5,6.7c1.3,1.2,2.8,2,4.5,2.4
		c0.2,0,0.3,0.1,0.4,0.1c-0.9-0.5-2-1-3-1.7c-2.4-1.7-4-3.9-4.7-6.8c-0.1-0.4-0.1-0.8-0.1-1.2c0-0.9,0.3-1.3,1.2-1.4
		c1-0.1,2,0,2.9,0.2c1.4,0.3,2.8,0.8,4.3,1.3c0.2,0.1,0.3,0.1,0.5,0.2c0-0.1,0-0.1,0.1-0.2c-0.9-0.5-1.9-0.9-2.8-1.4
		c0-0.1,0-0.1,0-0.2c0.8-0.1,1.6-0.2,2.4-0.2c3-0.1,6,0.3,9,0.8c3.4,0.6,6.8,1.4,10.1,2.4c2.4,0.7,4.7,1.7,7,2.5
		c0.3,0.1,0.4,0.3,0.3,0.6c-0.1,0.5-0.2,1-0.3,1.4C61.7,23,61.7,23,61.7,23z M34.2,24.3c-0.4-0.6-0.8-1.1-1.2-1.7
		c0,0,0.1-0.1,0.1-0.1c0.2,0.1,0.5,0.1,0.7,0.2c0,0,0-0.1,0-0.1c-0.5-0.6-0.9-1.1-1.4-1.7c0,0,0.1-0.1,0.1-0.1
		c0.5,0.2,1,0.5,1.6,0.7c-0.3-0.5-0.6-0.9-0.8-1.3c0,0,0.1-0.1,0.1-0.1c0.4,0.2,0.9,0.4,1.3,0.6c-0.1-0.2-0.2-0.4-0.4-0.6
		c-1.3-1.2-2.8-1.9-4.4-2.4c-0.3-0.1-0.9-0.3-1.1-0.1c-0.4,0.3-0.1,0.8,0,1.3C30,21.4,32,23,34.2,24.3z M51.6,20.9c0,0,0-0.1,0-0.1
		c-0.5-0.1-0.9-0.2-1.4-0.3c-2-0.4-4-0.8-5.9-1.1c-0.4-0.1-0.7,0-1.1,0c0.2,0.2,0.4,0.2,0.5,0.3c0.3,0.1,0.8,0.2,1,0.5
		c0.5,0.7,1.1,1,1.8,1.1c1.4,0.3,2.9,0.1,4.3,0C51.1,21.2,51.4,21,51.6,20.9z M44.8,31c0-0.3,0-0.6-0.1-0.8c-0.1-0.9,0.1-1.3,1-1.7
		c1.4-0.8,2.8-1.2,4.3-1.7c0.3-0.1,0.6-0.2,0.9-0.3c-0.2-0.1-0.3-0.1-0.5,0c-1.3,0.4-2.6,0.7-3.9,1.1c-0.7,0.3-1.4,0.7-2.1,1.1
		c-0.2,0.1-0.4,0.4-0.4,0.6C44.1,29.9,44.3,30.5,44.8,31z"/>
	<path class="st0" d="M25,32.8c0.5,0.7,0.9,1.3,1.3,1.9c0.4,0.6,0.8,1.2,1.2,1.9c0.8-1.3,1.6-2.5,2.5-3.8c0,0.2,0.1,0.3,0.1,0.4
		c0,2,0,4,0,6c0,0.3,0,0.5-0.4,0.5c-1.5,0-2.9,0-4.4,0c-0.1,0-0.1,0-0.2,0C25,37.5,25,35.2,25,32.8z"/>
	<path class="st0" d="M33.8,47.1c-1.4,1-2.6,1-3.5,0c-0.9-1-0.9-2.9,0-3.9c0.7-0.8,2.1-1.2,3.4,0c0,0,0.1,0,0.1,0
		c0-0.3,0.1-0.7,0.5-0.6c0.5,0,0.4,0.4,0.4,0.7c0,1.3,0,2.6,0,3.9c0.1,2-1.3,2.9-3.2,2.6c-0.4-0.1-0.8-0.3-1.1-0.4
		c-0.1-0.1-0.2-0.3-0.2-0.4c0.1-0.1,0.3-0.3,0.4-0.2c0.3,0,0.6,0.2,0.9,0.3c1,0.3,1.9-0.2,2.1-1C33.8,47.6,33.8,47.4,33.8,47.1z
		 M30.5,45.1c0,1.1,0.7,1.9,1.7,1.9c1,0,1.7-0.8,1.7-1.8c0-1-0.7-1.9-1.7-1.9C31.2,43.3,30.5,44.1,30.5,45.1z"/>
	<path class="st0" d="M9.9,43.2c1.5-1,2.3-0.9,3.1,0.3c0.2-0.2,0.4-0.4,0.6-0.6c0.6-0.5,1.3-0.6,2-0.3c0.7,0.3,0.9,0.9,0.9,1.6
		c0,1,0,2,0,3.1c0,0.3-0.1,0.5-0.4,0.5c-0.3,0-0.5-0.2-0.5-0.5c0-0.7,0-1.4,0-2.1c0-0.2,0-0.5,0-0.7c-0.1-0.8-0.5-1.1-1.2-1.1
		c-0.7,0-1.3,0.6-1.3,1.2c0,0.9,0,1.7,0,2.6c0,0.2-0.2,0.5-0.3,0.6c-0.3,0.1-0.6,0-0.6-0.4c0-0.9,0-1.8,0-2.7c0-0.7-0.3-1.1-0.8-1.2
		c-0.6-0.2-1.3,0.1-1.5,0.7c-0.1,0.2-0.2,0.5-0.2,0.8c0,0.8,0,1.6,0,2.3c0,0.3-0.1,0.6-0.5,0.6c-0.4,0-0.5-0.3-0.5-0.6
		c0-1.3,0-2.5,0-3.8c0-0.3,0-0.8,0.4-0.8C9.5,42.6,9.7,43,9.9,43.2z"/>
	<path class="st0" d="M53.7,45.4c0,1.3,1.5,2.1,2.6,1.4c0.1-0.1,0.2-0.2,0.4-0.2c0.2,0,0.4,0,0.6,0c0,0.2,0,0.4-0.1,0.6
		c-0.2,0.2-0.4,0.3-0.6,0.5c-1.3,0.7-3,0.1-3.6-1.1c-0.7-1.5,0-3.3,1.4-3.9c1.4-0.5,3.1,0.6,3.2,2.2c0,0.4-0.2,0.6-0.6,0.6
		c-0.9,0-1.9,0-2.8,0C54.1,45.4,53.9,45.4,53.7,45.4z M53.8,44.6c1,0,1.9,0,2.9,0c0-0.7-0.6-1.3-1.4-1.3
		C54.5,43.3,53.8,43.8,53.8,44.6z"/>
	<path class="st0" d="M17.7,45.1c0-1.6,1.1-2.7,2.7-2.7c1.5,0,2.6,1.2,2.6,2.8c0,1.5-1.2,2.7-2.6,2.6C18.7,47.8,17.7,46.7,17.7,45.1
		z M22,45.2c0-1.1-0.7-1.9-1.6-1.9c-1,0-1.8,0.7-1.8,1.8c0,1.1,0.7,1.9,1.7,1.9C21.2,47,22,46.3,22,45.2z"/>
	<path class="st0" d="M38.6,42.5c1.5,0,2.6,1.2,2.6,2.7c0,1.5-1.1,2.7-2.6,2.7c-1.5,0-2.6-1.2-2.6-2.7C35.9,43.6,37,42.5,38.6,42.5z
		 M40.2,45.2c0-1.1-0.7-1.9-1.7-1.9c-0.9,0-1.7,0.9-1.7,1.9c0,1,0.8,1.8,1.7,1.8C39.5,47,40.2,46.2,40.2,45.2z"/>
	<path class="st0" d="M44.6,42.5c1.5,0,2.6,1.2,2.6,2.7c0,1.5-1.1,2.7-2.6,2.7c-1.5,0-2.7-1.1-2.7-2.7C42,43.6,43,42.5,44.6,42.5z
		 M42.9,45.2c0,1.1,0.7,1.9,1.7,1.9c1,0,1.7-0.8,1.7-1.8c0-1.1-0.7-1.9-1.7-1.9C43.6,43.3,42.9,44.1,42.9,45.2z"/>
	<path class="st0" d="M25,43.1c0.5-0.2,1-0.6,1.5-0.6c1.1-0.2,1.9,0.4,1.9,1.6c0.1,1.1,0,2.1,0,3.2c0,0.3-0.2,0.5-0.4,0.4
		c-0.2,0-0.3-0.3-0.5-0.4c-0.1-0.1,0-0.3,0-0.4c0-0.8,0-1.7,0-2.5c0-0.8-0.4-1.1-1.2-1.1c-0.8,0-1.4,0.5-1.4,1.2c0,0.8,0,1.7,0,2.5
		c0,0.3,0,0.7-0.5,0.7C24,47.8,24,47.4,24,47c0-1.2,0-2.5,0-3.7c0-0.3,0-0.7,0.4-0.7C24.9,42.5,25,42.9,25,43.1z"/>
	<path class="st0" d="M50,42.5c0.6,0,1.1,0.2,1.6,0.6c0.2,0.2,0.3,0.4,0.1,0.7c-0.2,0.2-0.4,0.1-0.6-0.1c-0.4-0.4-0.9-0.5-1.4-0.4
		c-0.3,0-0.6,0.2-0.6,0.6c0,0.2,0.2,0.6,0.4,0.7c0.5,0.2,1,0.3,1.5,0.5c0.7,0.3,1,0.7,1,1.4c0,0.6-0.4,1.1-1.1,1.3
		c-1,0.3-1.9,0.2-2.7-0.5c-0.2-0.2-0.4-0.5-0.1-0.7c0.3-0.3,0.5-0.1,0.7,0.1c0.5,0.5,1.1,0.7,1.8,0.5c0.2-0.1,0.5-0.4,0.5-0.5
		c0-0.2-0.2-0.5-0.4-0.7c-0.2-0.2-0.5-0.2-0.8-0.3c-0.2-0.1-0.5-0.1-0.7-0.2c-0.8-0.3-1.1-0.8-1-1.5c0.1-0.6,0.6-1.1,1.4-1.3
		C49.7,42.5,49.9,42.5,50,42.5z"/>
</g>
</svg>
