<?xml version="1.0" encoding="utf-8"?>
<!-- Generator: Adobe Illustrator 24.1.0, SVG Export Plug-In . SVG Version: 6.00 Build 0)  -->
<svg version="1.1" baseProfile="basic" id="Camada_1"
	 xmlns="http://www.w3.org/2000/svg" xmlns:xlink="http://www.w3.org/1999/xlink" x="0px" y="0px" viewBox="0 0 65 65"
	 xml:space="preserve">
<style type="text/css">
	.st0{fill:#FF0000;}
</style>
<g>
	<path class="st0" d="M32.5,1.5c-17.1,0-31,13.9-31,31s13.9,31,31,31s31-13.9,31-31S49.6,1.5,32.5,1.5z M35.5,45.2L35.5,45.2
		c-0.4,0.4-0.8,0.7-1.3,1l-0.1,0c-0.3,1.6-0.6,3.2-0.8,4.7h-0.7c-0.2-2.3-0.5-4.4-0.5-4.4v0L32,46.6c-1-0.7-8-6.1-7.6-15.3
		c0.5-9.8,6.2-14.6,7.3-15.5c0.7-0.8,0.8-1.1,0.8-1.8c0,0,0,0.1,0,0.1c0,0,0.6,1.4,1.1,2.1c0.5,1.1,5.1,3.9,7.1,12.6
		c0.2,1.1,0.3,2.3,0.3,3.4C41.1,39,37.5,43.4,35.5,45.2z"/>
	<path class="st0" d="M32.5,41.4c0,1,0.6,3.7,1.2,3.7c0,0-0.4-16.5-0.8-16.5C32.5,28.6,32.5,41.4,32.5,41.4z"/>
</g>
</svg>
