<?xml version="1.0" encoding="utf-8"?>
<!-- Generator: Adobe Illustrator 24.1.0, SVG Export Plug-In . SVG Version: 6.00 Build 0)  -->
<svg version="1.1" baseProfile="basic" id="Camada_1"
	 xmlns="http://www.w3.org/2000/svg" xmlns:xlink="http://www.w3.org/1999/xlink" x="0px" y="0px" viewBox="0 0 65 65"
	 xml:space="preserve">
<style type="text/css">
	.st0{fill:#FCFCFC;}
	.st1{fill:none;}
	.st2{fill:#FF0000;}
	.st3{fill:#1E7297;}
	.st4{fill:#3B84A3;}
</style>
<path class="st0" d="M270.9,59.4c-11.2,0-22.3,0-33.5,0c-0.2,0-0.2,0-0.2-0.2c0-22.3,0-44.6,0-67c0-0.2,0-0.2,0.2-0.2
	c22.3,0,44.6,0,67,0c0.2,0,0.2,0,0.2,0.2c0,22.3,0,44.6,0,67c0,0.2,0,0.2-0.2,0.2C293.3,59.4,282.1,59.4,270.9,59.4z"/>
<g>
	<path class="st1" d="M47.6,38.2c-0.2-0.2-0.5-0.3-0.8-0.3c-0.9-0.1-1.9,0-2.8,0c-0.4,0-0.8,0-1.2,0c-0.8,0.1-1.2,0.5-1.2,1.3
		c0,1.5,0,2.9,0,4.4c0,0.8,0.4,1.3,1.2,1.3c0.7,0,1.4,0,2.2,0c0,0,0,0,0,0c-0.5-0.5-1.1-1-1.7-1.5c0.1,0,0.1,0,0.2,0
		c0.7,0,1.4,0,2.1,0c0.1,0,0.2,0.1,0.3,0.1c0.4,0.3,0.7,0.7,1.1,1c0.3,0.3,0.5,0.3,0.7-0.1c0.1-0.1,0.1-0.3,0.1-0.4c0-1.7,0-3.3,0-5
		C48,38.6,47.9,38.4,47.6,38.2z"/>
	<path class="st2" d="M64.3,38.7c-0.2-0.1-0.3-0.3-0.4-0.4c-0.6-0.7-1.3-1.4-2.1-1.9c-0.3-0.2-0.6-0.4-0.9-0.6
		c-0.2-0.2-0.4-0.3-0.5-0.6c0.5-0.1,0.9-0.2,1.4-0.3c0.7-0.1,1.3-0.2,2-0.4c0.2-0.1,0.2-0.1,0.1-0.3c-0.4-0.5-0.7-0.9-1.2-1.2
		c-1.3-1-2.6-2-4.1-2.5c-0.4-0.1-0.6-0.4-0.8-0.7c-0.5-1.1-1.1-2.2-1.6-3.3c-0.3-0.7-0.6-1.5-1-2.3c-1.6-2.7-3.7-4.7-6.5-6.2
		c-0.9-0.5-2-0.7-3-0.7c-0.2,0-0.4-0.1-0.5-0.2c-0.3-0.3-0.7-0.6-1.1-0.8c-0.6-0.3-1.3-0.6-2-0.6c-1,0-1.6,0.7-1.4,1.7
		c0.1,0.4,0.3,0.7,0.5,1.1c0.3,0.4,0.6,0.8,1,1.3c0.2,0.3,0.4,0.6,0.5,1c0.1,0.6,0.3,1.1,0.5,1.6c0.3,0.9,0.7,1.8,1.4,2.5
		c0.1,0.1,0.1,0.2,0.1,0.3c-0.3,1-0.6,1.9-0.6,2.9c-0.1,1.2,0.1,2.3,0.6,3.4c0.2,0.4,0.5,0.9,0.9,1.2c0.6,0.5,1.4,0.2,1.6-0.5
		c0-0.1,0-0.3,0.1-0.4c0.1-0.5,0.1-0.9,0.3-1.4c0.1,0.2,0.2,0.3,0.3,0.5c0.3,0.6,0.6,1.2,1,1.7c0.6,0.6,1.2,1.2,1.9,1.7
		c0,0,0,0,0.1-0.1c0,0-0.1-0.1-0.1-0.1c-1.1-1.4-2-2.9-2.7-4.5c-0.1-0.3-0.3-0.6-0.4-1c0-0.1-0.1-0.3-0.2-0.1
		c-0.4,0.5-0.8,0.9-0.9,1.6c-0.1,0.6-0.2,1.2-0.2,1.7c0,0.2-0.1,0.3-0.3,0.2c-0.2-0.1-0.4-0.3-0.5-0.5c-0.8-1.6-0.9-3.3-0.3-5.1
		c0.1-0.3,0.2-0.7,0.3-1c0.1-0.4,0-0.7-0.3-1c-0.3-0.2-0.5-0.5-0.6-0.9C44.2,23,44,22.5,43.8,22c-0.4-1.5-1-2.8-2-4
		c-0.2-0.2-0.4-0.5-0.5-0.9c-0.1-0.4,0.1-0.8,0.6-0.7c0.1,0,0.3,0,0.4,0.1c0.8,0.3,1.6,0.7,2.3,1.3c0.1,0.1,0.3,0.2,0.5,0.3
		c0.4,0,0.7,0.1,1.1,0.1c0.6,0,1.1,0.2,1.6,0.4c1.9,0.9,3.5,2.2,4.9,3.8c0.8,1,1.5,2,2,3.2c0.6,1.6,1.4,3.1,2.1,4.7
		c0.3,0.6,0.7,1,1.4,1.1c0.7,0.2,1.3,0.4,1.9,0.7c0.8,0.5,1.6,1,2.3,1.6c0.2,0.1,0.3,0.2,0.4,0.5c-0.5,0-0.9,0-1.3,0
		c-0.8,0-1.6,0.3-2.3,0.6c-0.1,0-0.3,0.1-0.2,0.3c0.1,0.2,0.2,0.4,0.3,0.6c0.6,0.9,1.5,1.5,2.5,2c0.8,0.4,1.7,0.8,2.4,1.4
		c0.2,0.1,0.3,0.3,0.6,0.4C64.6,39.2,64.5,38.9,64.3,38.7z"/>
	<g>
		<path class="st2" d="M14.8,37.8c0-0.6-0.3-1.1-0.9-1.3c-0.2-0.1-0.5-0.1-0.7-0.2c-1.2-0.2-2.2,0.1-2.8,1.4c-1,2.3-2,4.6-3,6.8
			c0,0.1,0,0.2-0.1,0.2c0-0.1-0.1-0.2-0.1-0.3c-0.4-0.9-0.8-1.8-1.2-2.8c-0.6-1.4-1.2-2.8-1.8-4.2c-0.4-0.9-1.1-1.3-2-1.3
			c-0.4,0-0.8,0.1-1.2,0.2c-0.8,0.2-1.1,0.6-1.1,1.4c0,2.8,0,5.5,0,8.3c0,0.2,0.1,0.2,0.2,0.2c0.6,0,1.1,0,1.7,0
			c0.2,0,0.3-0.1,0.3-0.3c0-2.6,0-5.2,0-7.8c0-0.1,0-0.2,0-0.3c0.1,0.1,0.1,0.2,0.1,0.2c1.1,2.4,2.1,4.8,3.2,7.1
			c0.3,0.7,0.8,1.1,1.5,1.1c1.4,0.1,2-0.2,2.5-1.3c1-2.3,2.1-4.6,3.1-6.9c0-0.1,0-0.2,0.2-0.2c0,0.1,0,0.2,0,0.3c0,2.6,0,5.2,0,7.8
			c0,0.2,0.1,0.3,0.3,0.3c0.5,0,1,0,1.6,0c0.2,0,0.3-0.1,0.3-0.3c0-2.5,0-5,0-7.5C14.8,38.3,14.8,38.1,14.8,37.8z"/>
		<path class="st2" d="M26.6,39.4c-0.5,0-1.1,0-1.6,0c-0.2,0-0.3,0.1-0.3,0.3c0,1.7,0,3.4,0,5c0,0.2,0,0.3-0.3,0.3
			c-1.4,0-2.9,0-4.3,0c-0.2,0-0.5,0-0.7-0.1c-0.5-0.1-0.7-0.4-0.7-0.9c0-1.5,0-2.9,0-4.4c0-0.2,0-0.3-0.3-0.3c-0.6,0-1.1,0-1.7,0
			c-0.2,0-0.2,0-0.2,0.2c0,1.5,0,2.9,0,4.4c0,0.7,0.3,1.2,0.8,1.5c0.7,0.5,1.5,0.7,2.4,0.7c1.4,0,2.8,0,4.1,0c0.2,0,0.5-0.1,0.7,0.1
			c0.1,0.1,0,0.4,0,0.6c0,0.4-0.2,0.6-0.5,0.8c-0.3,0.1-0.6,0.2-0.9,0.2c-2.1,0-4.3,0-6.4,0c-0.2,0-0.3,0-0.2,0.2c0,0.3,0,0.6,0,0.9
			c0,0.2,0.1,0.3,0.3,0.3c2.2,0,4.4,0,6.6,0c0.6,0,1.2-0.1,1.8-0.3c1.1-0.4,1.6-1.1,1.6-2.2c0-1.2,0-2.3,0-3.5c0,0,0,0,0,0
			c0-1.2,0-2.5,0-3.7C26.8,39.5,26.8,39.4,26.6,39.4z"/>
		<path class="st2" d="M37.8,36.4c-1.1,0-2.2,0-3.2,0c0,0,0,0,0,0c-1,0-2,0-3,0c-0.7,0-1.4,0.1-2,0.5c-0.7,0.4-1,0.9-1,1.7
			c0,0.4,0,0.8,0,1.2c0,0.7,0.3,1.2,0.9,1.6c0.6,0.4,1.3,0.6,2.1,0.6c0.9,0.1,1.8,0,2.7,0c0.4,0,0.7,0,1.1,0.2
			c0.4,0.1,0.6,0.4,0.6,0.8c0,0.3,0,0.6,0,0.9c0,0.5-0.2,0.8-0.7,1c-0.3,0.1-0.6,0.1-0.9,0.1c-1.8,0-3.7,0-5.5,0
			c-0.2,0-0.3,0-0.3,0.3c0,0.3,0,0.6,0,0.9c0,0.2,0.1,0.3,0.3,0.3c2,0,4,0,6,0c0.9,0,1.8-0.2,2.5-0.8c0.5-0.4,0.8-0.9,0.8-1.5
			c0-0.4,0-0.8,0-1.2c0-0.7-0.3-1.2-0.8-1.5c-0.6-0.3-1.2-0.5-1.8-0.6c-1.1-0.1-2.1,0-3.2,0c-0.3,0-0.5,0-0.8-0.1
			c-0.4-0.1-0.7-0.4-0.7-0.9c0-0.4,0-0.8,0-1.1c0-0.4,0.2-0.6,0.6-0.7c0.3-0.1,0.6-0.1,0.9-0.1c1.9,0,3.8,0,5.7,0
			c0.2,0,0.3,0,0.3-0.3c0-0.3,0-0.6,0-0.9C38.1,36.5,38,36.4,37.8,36.4z"/>
	</g>
	<path class="st2" d="M60.6,44.9c-1.7,0-3.5,0-5.2,0c-0.2,0-0.5,0-0.7,0c-0.7-0.1-1.1-0.3-1.1-1.2c0-2.3,0-4.7,0-7
		c0-0.2-0.1-0.3-0.3-0.3c-0.6,0-1.1,0-1.7,0c-0.2,0-0.2,0.1-0.2,0.2c0,1.2,0,2.5,0,3.7c0,0,0,0,0,0c0,1.2,0,2.4,0,3.6
		c0,0.7,0.3,1.3,0.9,1.7c0.7,0.5,1.5,0.6,2.3,0.7c2,0.1,4.1,0,6.1,0c0.2,0,0.2-0.1,0.2-0.2c0-0.3,0-0.6,0-0.9
		C60.9,45,60.8,44.9,60.6,44.9z"/>
	<path class="st2" d="M45.5,20c0.3,0.3,0.6,0.7,0.7,1.2c0,0.1,0.1,0.1,0.2,0c0.2-0.2,0.2-0.4,0.2-0.6c0-0.5-0.5-0.9-1.1-0.8
		C45.4,19.8,45.3,19.8,45.5,20z"/>
	<path class="st3" d="M51.1,34.7C51.1,34.7,51.1,34.7,51.1,34.7c-0.1-0.2-0.3-0.4-0.5-0.6c0,0,0,0-0.1,0.1
		C50.7,34.4,50.9,34.6,51.1,34.7z"/>
	<path class="st4" d="M51.3,34.9c0-0.1-0.1-0.2-0.2-0.2c0,0,0,0-0.1,0.1C51.1,34.8,51.2,34.8,51.3,34.9z"/>
	<path class="st2" d="M50,44c0-1.7,0-3.5,0-5.2c0-0.9-0.5-1.6-1.3-1.9c-0.7-0.3-1.4-0.4-2.1-0.4c-1.3,0-2.6,0-3.9,0
		c-0.6,0-1.3,0.1-1.9,0.3c-0.9,0.3-1.5,1-1.5,2c0,1.8,0,3.5,0,5.3c0,0.8,0.4,1.4,1.1,1.8c0.6,0.3,1.2,0.5,1.8,0.5
		c1.4,0.1,2.8,0,4.2-0.1c0.2,0,0.3,0,0.4,0.1c0.4,0.3,0.8,0.7,1.1,1c0.3,0.3,0.6,0.4,1,0.4c0.5,0,1.1,0,1.6,0c0.1,0,0.2,0,0.3,0
		c-0.7-0.6-1.4-1.2-2.1-1.9C49.7,45.6,50,44.9,50,44z M47.9,44.4c-0.2,0.4-0.4,0.4-0.7,0.1c-0.4-0.3-0.7-0.7-1.1-1
		c-0.1-0.1-0.2-0.1-0.3-0.1c-0.7,0-1.4,0-2.1,0c0,0-0.1,0-0.2,0c0.6,0.5,1.1,1,1.7,1.5c0,0,0,0,0,0c-0.7,0-1.5,0-2.2,0
		c-0.8,0-1.2-0.5-1.2-1.3c0-1.5,0-2.9,0-4.4c0-0.8,0.4-1.2,1.2-1.3c0.4,0,0.8,0,1.2,0c0.9,0,1.9,0,2.8,0c0.3,0,0.6,0.1,0.8,0.3
		c0.3,0.2,0.4,0.4,0.4,0.7c0,1.7,0,3.3,0,5C48,44.1,48,44.2,47.9,44.4z"/>
	<path class="st2" d="M63.5,43.3c-0.9,0-1.6,0.7-1.6,1.6c0,0.9,0.7,1.6,1.6,1.6c0.9,0,1.6-0.7,1.6-1.6C65.1,44,64.4,43.3,63.5,43.3z
		 M63.5,46.1c-0.7,0-1.2-0.5-1.2-1.2c0-0.7,0.5-1.3,1.2-1.3c0.7,0,1.2,0.6,1.2,1.3C64.7,45.6,64.2,46.2,63.5,46.1z"/>
	<path class="st2" d="M63.9,45.2c-0.1-0.1-0.1-0.2,0.1-0.2c0.2-0.1,0.3-0.3,0.3-0.5c0-0.2-0.1-0.4-0.4-0.4c-0.3-0.1-0.5,0-0.8,0
		c-0.2,0-0.2,0.1-0.2,0.2c0,0.2,0,0.5,0,0.7c0,0.3,0,0.5,0,0.8c0,0.1,0.1,0.1,0.2,0.2c0.1,0,0.1-0.1,0.1-0.2c0-0.1,0-0.3,0-0.4
		c0-0.1,0-0.2,0.1-0.2c0.1,0,0.2,0,0.2,0.1c0,0.1,0.1,0.2,0.2,0.3c0.1,0.1,0.1,0.2,0.2,0.3c0.1,0.1,0.2,0.1,0.3,0.1
		c0.1-0.1,0-0.1,0-0.2C64,45.4,64,45.3,63.9,45.2z M63.5,44.8C63.5,44.8,63.5,44.8,63.5,44.8c-0.4,0-0.5-0.2-0.4-0.4c0,0,0,0,0,0
		c0.2-0.1,0.4-0.1,0.6,0c0.1,0,0.2,0.1,0.2,0.3C63.8,44.8,63.7,44.8,63.5,44.8z"/>
</g>
</svg>
