<?xml version="1.0" encoding="utf-8"?>
<!-- Generator: Adobe Illustrator 24.1.0, SVG Export Plug-In . SVG Version: 6.00 Build 0)  -->
<svg version="1.1" baseProfile="basic" id="Camada_1"
	 xmlns="http://www.w3.org/2000/svg" xmlns:xlink="http://www.w3.org/1999/xlink" x="0px" y="0px" viewBox="0 0 65 65"
	 xml:space="preserve">
<style type="text/css">
	.st0{fill:#FF0000;}
</style>
<g>
	<path class="st0" d="M60.5,19.6c0-2.3-1-3.9-3-5.1c-7.4-4.2-14.7-8.4-22-12.7c-2-1.2-4-1.2-6-0.1C22,6.2,14.5,10.5,7,14.9
		c-1.5,0.9-2.4,2.3-2.4,4.1c0,8.9,0,17.9,0,26.8c0,1.9,0.8,3.3,2.4,4.2c1.9,1.1,3.8,2.3,5.7,3.3c1.9,1,3.9,1.8,6.1,1.6
		c3-0.2,5.1-1.7,5.8-4.5c0.2-0.7,0.3-1.5,0.3-2.3c0-7,0-14,0-20.9c0-1.7-0.1-3.5,0-5.2c0-1-0.3-1.4-1.3-1.2c-0.1,0-0.3,0-0.4,0
		c-2.7,0-2.4-0.4-2.4,2.4c0,8.1,0,16.1,0,24.2c0,2.3-1.6,3.8-3.6,3.5c-0.8-0.1-1.7-0.4-2.4-0.8c-1.9-1-3.7-2.2-5.6-3.2
		c-0.7-0.4-0.9-0.8-0.9-1.5c0-8.6,0-17.2,0-25.7c0-0.8,0.3-1.2,0.9-1.5c6.9-4,13.8-7.8,20.6-12c1.9-1.2,3.2-1,5,0.1
		c6.7,4,13.4,7.8,20.2,11.7c0.9,0.5,1.2,1,1.2,2.1c0,8.5,0,17,0,25.4c0,0.7-0.2,1.1-0.8,1.5c-7.4,4.3-14.8,8.5-22.2,12.8
		c-0.6,0.4-1.2,0.4-1.8,0c-1.7-1-3.3-2-5-3c-0.3-0.2-0.7-0.3-0.9-0.3c-1.3,0.6-2.6,1.2-4,1.9c0.3,0.2,0.5,0.4,0.7,0.5
		c2.6,1.6,5.2,3.2,7.9,4.7c1.6,0.9,3.2,0.7,4.8-0.2c7.6-4.4,15.1-8.7,22.7-13.1c1.8-1,2.7-2.5,2.7-4.6
		C60.4,36.9,60.4,28.3,60.5,19.6z"/>
	<path class="st0" d="M43.7,41.3c-2.6,0.6-5.2,0.5-7.8,0.2c-2.4-0.4-4-1.6-4.4-4.2c0-0.3-0.5-0.6-0.8-0.7c-0.8-0.1-1.6,0-2.3,0
		c-0.7,0-1,0.3-1,1c0.2,2.6,1.2,4.8,3.5,6.2c2.6,1.5,5.5,1.9,8.5,1.8c0.7,0,1.5,0.1,2.2,0c2.1-0.2,4.1-0.6,5.9-1.7
		c2.8-1.6,3.8-4.2,3.4-7.3c-0.3-2.7-2.1-4.1-4.5-4.8c-1.9-0.5-3.8-0.8-5.7-1.2c-2.2-0.4-4.4-0.7-6.5-1.2c-1.5-0.4-2.1-1.6-1.4-3
		c0.3-0.7,1-1.4,1.7-1.7c2.8-1,5.6-0.9,8.4-0.1c1.1,0.3,2.2,1,2.4,2.2c0.4,2.1,1.8,2.2,3.4,2c0.2,0,0.5,0.1,0.6,0
		c0.3-0.2,0.7-0.6,0.7-0.8c-0.3-2.7-1.3-5.2-4-6.4c-4.7-2-9.4-2.1-14.1-0.1c-2.7,1.1-4,3.6-3.8,6.7c0.2,2.6,1.6,4.4,4.5,5.2
		c2.1,0.6,4.3,0.8,6.4,1.2c2,0.4,4,0.7,5.9,1.2c1.2,0.3,1.6,1,1.6,2.3C46.6,39.8,45.7,40.8,43.7,41.3z"/>
</g>
</svg>
