<?xml version="1.0" encoding="utf-8"?>
<!-- Generator: Adobe Illustrator 24.1.0, SVG Export Plug-In . SVG Version: 6.00 Build 0)  -->
<svg version="1.1" baseProfile="basic" id="Camada_1"
	 xmlns="http://www.w3.org/2000/svg" xmlns:xlink="http://www.w3.org/1999/xlink" x="0px" y="0px" viewBox="0 0 65 65"
	 xml:space="preserve">
<style type="text/css">
	.st0{fill:#FF0000;}
</style>
<g>
	<path class="st0" d="M32.5,61.6c-6.4,0-12.8,0-19.1,0c-3.9,0-7-1.7-9.1-5c-1.1-1.7-1.6-3.7-1.6-5.7c0-7.1,0-14.2,0-21.3
		c0-5.2,0-10.4,0-15.6c0-3.9,1.7-6.9,5-9c1.7-1.1,3.7-1.6,5.7-1.6c4.9,0,9.7,0,14.6,0c7.9,0,15.9,0,23.8,0c4.9,0,9,3.2,10.3,7.9
		c0.2,0.9,0.4,1.8,0.4,2.8c0,12.3,0,24.7,0,37c0,5.4-3.8,9.8-9.1,10.5c-0.6,0.1-1.1,0.1-1.7,0.1C45.2,61.6,38.8,61.6,32.5,61.6z
		 M16.1,31.4c0,4.2,0,8.4,0,12.6c0,0.5,0,0.5,0.5,0.5c1.4,0,2.9,0,4.3,0c0.5,0,0.6,0,0.6-0.5c0-2.3,0-4.6,0-6.9c0-0.9,0-0.9,0.9-0.9
		c1.8,0.1,3.6,0,5.4-0.3c2-0.4,3.7-1.3,5.1-2.8c1.5-1.7,2.1-3.7,2.1-5.8c0-3.3-1.3-6-4.3-7.7c-1.6-0.9-3.4-1.3-5.3-1.3
		c-2.9,0-5.8,0.1-8.6,0.1c-0.5,0-0.5,0-0.5,0.5C16.1,23.1,16.1,27.2,16.1,31.4z M37.6,41.3c0,0.7,0,1.3,0,2c0,0.3,0.1,0.5,0.4,0.6
		c0.4,0.1,0.8,0.3,1.2,0.4c2.1,0.6,4.2,0.8,6.4,0.5c1.5-0.2,3-0.6,4.2-1.5c2.9-2.1,3.3-7.2-0.5-9.4c-0.6-0.3-1.1-0.6-1.7-0.9
		c-1.2-0.5-2.4-1-3.6-1.6c-0.3-0.1-0.6-0.4-0.8-0.6c-0.7-0.7-0.4-1.6,0.4-1.9c0.4-0.1,0.9-0.2,1.4-0.2c1.9,0,3.7,0.3,5.4,1.1
		c0.5,0.2,0.7,0.1,0.7-0.4c0-1.2,0-2.4,0-3.6c0-0.4-0.1-0.7-0.6-0.8c-2-0.7-4-0.8-6.1-0.6c-1.4,0.1-2.8,0.4-4,1.2
		c-3.1,2-3.7,6.2-1.2,8.8c0.7,0.8,1.7,1.3,2.6,1.8c1,0.5,2.1,0.9,3.1,1.3c0.5,0.2,0.9,0.5,1.3,0.8c0.7,0.6,0.6,1.6-0.4,1.9
		c-0.5,0.2-1,0.3-1.6,0.3c-2.2,0.1-4.3-0.4-6.3-1.5c-0.4-0.2-0.5-0.2-0.5,0.3C37.6,40,37.6,40.7,37.6,41.3z"/>
	<path class="st0" d="M21.5,27.3c0-1.3,0-2.5,0-3.8c0-0.2,0-0.4,0.3-0.4c1.5,0,3-0.2,4.5,0.2c1.5,0.4,2.7,1.2,3.1,2.8
		c0.5,2.4-0.3,4.3-2.8,5.1c-1.6,0.5-3.2,0.4-4.8,0.4c-0.3,0-0.3-0.2-0.3-0.4C21.5,29.9,21.5,28.6,21.5,27.3z"/>
</g>
</svg>
