<?xml version="1.0" encoding="utf-8"?>
<!-- Generator: Adobe Illustrator 24.1.0, SVG Export Plug-In . SVG Version: 6.00 Build 0)  -->
<svg version="1.1" id="Camada_1" xmlns="http://www.w3.org/2000/svg" xmlns:xlink="http://www.w3.org/1999/xlink" x="0px" y="0px"
	 viewBox="0 0 65 65" style="enable-background:new 0 0 65 65;" xml:space="preserve">
<style type="text/css">
	.st0{fill:#FF0000;}
</style>
<g>
	<path class="st0" d="M60.7,25.1c-2.4-2.4-5.4-3.9-8.5-5.2c-6.3-2.5-13-3.4-20.9-3.5c-1.4,0.1-3.9,0.3-6.5,0.5
		c-4.4,0.5-8.6,1.5-12.7,3.3c-3.2,1.3-6.1,3-8.4,5.6c-3.9,4.2-3.9,9.3,0,13.5c1.8,1.9,3.9,3.4,6.2,4.5c6.6,3.3,13.6,4.6,20.9,4.8
		c3.2,0.1,6.4-0.2,9.5-0.5c4.5-0.4,8.8-1.6,13-3.4c3.2-1.4,6.2-3.2,8.5-5.9c1.4-1.6,2.3-3.4,2.5-5.5C64.5,30,63,27.4,60.7,25.1z
		 M20,37.2c-1.7,0-3.4,0-5.1,0c-0.2,0.9-0.3,1.7-0.5,2.6c-0.1,0.9-0.3,1.7-0.4,2.6c-1.3,0-2.5,0-3.8,0c0.2-0.8,0.3-1.6,0.4-2.4
		c0.9-4.9,1.9-9.9,2.8-14.8c0.1-0.4,0.2-0.5,0.6-0.5c2.4,0,4.9,0,7.3,0c0.6,0,1.3,0.1,1.9,0.3c2.3,0.7,3.5,2.4,3.5,4.8
		c0,1.5-0.4,3-1.2,4.3C24.3,36.2,22.4,37.2,20,37.2z M39.1,37.2c-1.2,0-2.5,0-3.8,0c0.2-1.1,0.4-2.1,0.6-3.1
		c0.3-1.6,0.6-3.1,0.9-4.7c0.2-1.3-0.2-1.9-1.5-2.1c-0.2,0-0.3,0-0.5,0c-1,0-2,0-3.1,0c-0.3,1.5-0.6,3-0.9,4.5
		c-0.3,1.6-0.6,3.2-1,4.8c0,0.2-0.3,0.5-0.4,0.5c-1.1,0-2.2,0-3.5,0c1.1-5.8,2.3-11.5,3.4-17.2c1.3,0,2.5,0,3.8,0
		c-0.3,1.5-0.6,3-0.9,4.7c0.3,0,0.6,0,0.9,0c1.6,0.1,3.3,0.1,4.9,0.3c0.7,0.1,1.4,0.5,2,1c0.9,0.7,0.9,1.8,0.7,2.8
		c-0.5,2.7-1.1,5.5-1.6,8.2C39.2,37.1,39.1,37.1,39.1,37.2z M54.6,34.9c-1.2,1.5-2.9,2.2-4.8,2.3c-1.6,0.1-3.1,0-4.7,0
		c-0.4,0-0.6,0.1-0.7,0.6c-0.2,1.5-0.5,3-0.8,4.6c-1.3,0-2.5,0-3.8,0c0.2-1.1,0.4-2.1,0.6-3.1c0.9-4.7,1.8-9.4,2.7-14.1
		c0.1-0.4,0.2-0.6,0.7-0.6c2.4,0,4.8,0,7.2,0c0.7,0,1.4,0.1,2,0.3c2.2,0.7,3.4,2.3,3.4,4.6C56.5,31.6,55.9,33.4,54.6,34.9z"/>
	<path class="st0" d="M50.5,27.5c-1.2-0.2-2.5-0.1-3.7-0.1c-0.1,0-0.3,0.2-0.4,0.4c-0.1,0.6-0.2,1.1-0.4,1.7c-0.3,1.7-0.6,3.3-1,5.1
		c0.2,0,0.4,0,0.6,0c1.1,0,2.3,0,3.4-0.1c1.4-0.1,2.4-0.9,2.8-2.2c0.3-0.7,0.4-1.5,0.5-2.3C52.6,28.5,52,27.7,50.5,27.5z"/>
	<path class="st0" d="M20.8,27.5c-1-0.1-2.1-0.1-3.1-0.1c-0.6,0-0.9,0.1-1,0.8c-0.4,2.2-0.8,4.3-1.2,6.4c1.3,0,2.6,0.1,3.9,0
		c1.7-0.1,2.7-1.1,3.1-2.7c0.1-0.5,0.2-1.1,0.3-1.6C23,28.6,22.3,27.7,20.8,27.5z"/>
</g>
</svg>
