<?xml version="1.0" encoding="utf-8"?>
<!-- Generator: Adobe Illustrator 24.1.0, SVG Export Plug-In . SVG Version: 6.00 Build 0)  -->
<svg version="1.1" baseProfile="basic" id="Camada_1"
	 xmlns="http://www.w3.org/2000/svg" xmlns:xlink="http://www.w3.org/1999/xlink" x="0px" y="0px" viewBox="0 0 65 65"
	 xml:space="preserve">
<style type="text/css">
	.st0{fill:#FF0000;}
</style>
<path class="st0" d="M32.5,38.3c3.2,0,5.8-2.6,5.8-5.8s-2.6-5.8-5.8-5.8s-5.8,2.6-5.8,5.8S29.3,38.3,32.5,38.3z"/>
<path class="st0" d="M54.5,23c-1.1-0.4-2.3-0.8-3.5-1.2c0.3-1.2,0.6-2.4,0.8-3.6c1.1-6.7-0.1-11.4-3.4-13.3c-1-0.6-2-0.8-3.3-0.8
	c-3.6,0-8.1,2.6-12.6,7.1c-4.6-4.4-9.1-7.1-12.6-7.1c-1.2,0-2.3,0.3-3.3,0.8c-3.2,1.9-4.4,6.6-3.4,13.3c0.2,1.2,0.5,2.4,0.8,3.6
	c-1.2,0.4-2.4,0.7-3.5,1.2c-6.3,2.4-9.8,5.8-9.8,9.5s3.5,7.1,9.8,9.5c1.1,0.4,2.3,0.8,3.5,1.2c-0.3,1.2-0.6,2.4-0.8,3.6
	c-1.1,6.7,0.1,11.4,3.4,13.3c1,0.6,2,0.8,3.3,0.8c3.6,0,8.1-2.6,12.6-7.1c4.6,4.4,9.1,7.1,12.6,7.1c1.2,0,2.3-0.3,3.3-0.8
	c3.3-1.9,4.4-6.6,3.4-13.3c-0.2-1.2-0.5-2.4-0.8-3.6c1.2-0.4,2.4-0.7,3.5-1.2c6.3-2.4,9.8-5.8,9.8-9.5S60.8,25.4,54.5,23L54.5,23z
	 M47,7.5c2.1,1.2,2.8,5,1.9,10.3c-0.2,1.1-0.4,2.2-0.7,3.4c-2.6-0.6-5.4-1-8.4-1.3c-1.7-2.4-3.5-4.6-5.3-6.6C38.3,9.5,42.1,7,45.2,7
	C45.9,7,46.5,7.2,47,7.5L47,7.5z M41.3,37.6c-0.9,1.6-2,3.3-3.1,4.9c-1.9,0.2-3.8,0.2-5.7,0.2c-2,0-3.9-0.1-5.7-0.2
	c-1.1-1.6-2.1-3.3-3-4.9c-1-1.7-1.9-3.4-2.7-5.1c0.8-1.7,1.7-3.4,2.7-5.1c0.9-1.6,2-3.3,3.1-4.9c1.9-0.2,3.8-0.2,5.7-0.2
	c2,0,3.9,0.1,5.7,0.2c1.1,1.6,2.1,3.3,3,4.9c1,1.7,1.9,3.4,2.7,5.1C43.1,34.2,42.3,35.9,41.3,37.6z M45.5,35.9
	c0.8,1.8,1.4,3.5,1.9,5.2c-1.7,0.4-3.6,0.7-5.5,1c0.6-1,1.3-2,1.8-3C44.4,38,44.9,36.9,45.5,35.9z M32.5,49.7
	c-1.2-1.3-2.4-2.7-3.5-4.2c1.2,0.1,2.3,0.1,3.5,0.1s2.3-0.1,3.5-0.1C34.9,46.9,33.7,48.3,32.5,49.7z M23.1,42
	c-1.9-0.3-3.8-0.6-5.5-1c0.6-1.7,1.2-3.5,1.9-5.2c0.6,1,1.1,2.1,1.7,3.1C21.8,40.1,22.4,41,23.1,42L23.1,42z M19.5,29.1
	c-0.8-1.8-1.4-3.5-1.9-5.2c1.7-0.4,3.6-0.7,5.5-1c-0.6,1-1.3,2-1.8,3C20.6,27,20.1,28.1,19.5,29.1L19.5,29.1z M32.5,15.3
	c1.2,1.3,2.4,2.7,3.5,4.2c-1.2-0.1-2.3-0.1-3.5-0.1s-2.3,0.1-3.5,0.1C30.1,18.1,31.3,16.7,32.5,15.3z M43.8,26l-1.8-3
	c1.9,0.3,3.8,0.6,5.5,1c-0.6,1.7-1.2,3.5-1.9,5.2C44.9,28.1,44.4,27,43.8,26z M16.1,17.8c-0.9-5.3-0.2-9.1,1.9-10.3
	C18.5,7.2,19.1,7,19.8,7c3,0,6.9,2.5,10.7,6.2c-1.8,1.9-3.6,4.2-5.3,6.6c-2.9,0.3-5.7,0.7-8.4,1.3C16.5,20,16.3,18.8,16.1,17.8
	L16.1,17.8z M3.6,32.5c0-2.4,2.9-4.9,8-6.8c1-0.4,2.1-0.8,3.3-1.1c0.8,2.5,1.8,5.2,3,7.9c-1.2,2.7-2.3,5.3-3,7.9
	C7.8,38.4,3.6,35.3,3.6,32.5z M18,57.5c-2.1-1.2-2.8-5-1.9-10.3c0.2-1.1,0.4-2.2,0.7-3.4c2.6,0.6,5.4,1,8.4,1.3
	c1.7,2.4,3.5,4.6,5.3,6.6c-3.8,3.7-7.6,6.2-10.7,6.2C19.1,58,18.5,57.8,18,57.5z M48.9,47.2c0.9,5.3,0.2,9.1-1.9,10.3
	c-0.5,0.3-1.1,0.5-1.8,0.5c-3,0-6.9-2.5-10.7-6.2c1.8-1.9,3.6-4.2,5.3-6.6c2.9-0.3,5.7-0.7,8.4-1.3C48.5,45,48.7,46.2,48.9,47.2
	L48.9,47.2z M53.5,39.3c-1,0.4-2.1,0.8-3.3,1.1c-0.8-2.5-1.8-5.2-3-7.9c1.2-2.7,2.3-5.3,3-7.9c7,2,11.2,5.1,11.2,7.9
	C61.4,34.9,58.5,37.4,53.5,39.3z"/>
</svg>
