<?xml version="1.0" encoding="utf-8"?>
<!-- Generator: Adobe Illustrator 24.1.0, SVG Export Plug-In . SVG Version: 6.00 Build 0)  -->
<svg version="1.1" baseProfile="basic" id="Camada_1"
	 xmlns="http://www.w3.org/2000/svg" xmlns:xlink="http://www.w3.org/1999/xlink" x="0px" y="0px" viewBox="0 0 65 66"
	 xml:space="preserve">
<style type="text/css">
	.st0{clip-path:url(#SVGID_2_);}
	.st1{fill:#FF0000;}
</style>
<g>
	<defs>
		<rect id="SVGID_1_" y="0.3" width="65" height="65"/>
	</defs>
	<clipPath id="SVGID_2_">
		<use xlink:href="#SVGID_1_"  style="overflow:visible;"/>
	</clipPath>
	<g class="st0">
		<path class="st1" d="M45,45.1c-4.6,9.3-12.6,15.6-23.2,17.7c-1.6,0.4-3.3,0.6-5,0.6c-6.1,0-11.7-2.5-14.4-6.7
			c-3.6-5.5-4.9-17.3,7.1-26c0.2,1.3,0.7,3.1,1.1,4.2c-2.4,1.8-4.3,4-5.6,6.6c-2.2,4.4-2,8.8,0.7,12.8c1.8,2.7,4.7,4.4,8.4,4.9
			c4.6,0.6,9.4-0.3,13.5-2.5c6.5-3.4,10.8-7.4,13.6-13c-0.8-0.8-1.3-1.9-1.3-3c0-1.2,0.4-2.4,1.2-3.3c0.8-0.9,2-1.4,3.2-1.5h0.2
			c1.2,0,2.3,0.4,3.2,1.3c0.9,0.8,1.4,1.9,1.5,3.1c0.1,1.2-0.3,2.4-1.1,3.3C47.3,44.5,46.2,45,45,45.1L45,45.1z M59.6,34.8
			c6.2,7,6.4,15.3,4,20.1c-2.2,4.4-8.1,8.8-16,8.8c-3.7-0.1-7.3-1-10.7-2.6c1.2-0.8,2.8-2.2,3.7-3c2.6,1.1,5.3,1.7,8.1,1.7
			c5.1,0,9-2.4,11.3-6.8c1.5-2.9,1.6-6.3,0.2-9.8c-1.7-4.4-4.8-8.1-8.8-10.6c-5.2-3.5-11.4-5.4-17.6-5.4h-1.5
			c-0.3,0.8-0.9,1.5-1.6,2s-1.6,0.8-2.4,0.8h-0.2c-1.2,0-2.4-0.5-3.2-1.4c-0.9-0.9-1.3-2-1.4-3.2c0-1.2,0.4-2.4,1.3-3.3
			s2-1.4,3.2-1.5h0.2c0.8,0,1.7,0.2,2.4,0.7c0.7,0.4,1.3,1.1,1.7,1.8h1.3C44,23.4,53.3,27.5,59.6,34.8L59.6,34.8z M17.6,46.5
			c-0.1-0.8,0.1-1.7,0.6-2.4c-4.6-8-7.1-18.2-3.3-28.8c2.7-8,9.6-13.3,17-13.3c7.9,0,16.2,7,17.2,20.3c-1.2-0.4-3-1-4.1-1.2
			C44.7,16.7,41,5.8,32.2,6c-3.1,0.1-7.8,1.6-10.2,4.6c-2.9,3.6-4.7,8.1-4.9,12.8c-0.6,6.4,0.9,12.9,4.3,18.4
			c0.2-0.1,0.4-0.1,0.6-0.1h0.2c1.2,0,2.4,0.4,3.3,1.3c0.9,0.9,1.4,2,1.4,3.3c0,1.2-0.4,2.4-1.3,3.3c-0.9,0.9-2,1.4-3.3,1.4h-0.2
			c-1.2,0-2.3-0.5-3.2-1.3C18.1,48.8,17.6,47.7,17.6,46.5L17.6,46.5z"/>
	</g>
</g>
</svg>
