<?xml version="1.0" encoding="utf-8"?>
<!-- Generator: Adobe Illustrator 24.1.0, SVG Export Plug-In . SVG Version: 6.00 Build 0)  -->
<svg version="1.1" baseProfile="basic" id="Camada_1"
	 xmlns="http://www.w3.org/2000/svg" xmlns:xlink="http://www.w3.org/1999/xlink" x="0px" y="0px" viewBox="0 0 66 66"
	 xml:space="preserve">
<style type="text/css">
	.st0{clip-path:url(#SVGID_2_);}
	.st1{fill:#212121;}
	.st2{fill:#FF0000;}
</style>
<g>
	<defs>
		<rect id="SVGID_1_" x="0.1" y="0.6" width="65" height="65"/>
	</defs>
	<clipPath id="SVGID_2_">
		<use xlink:href="#SVGID_1_"  style="overflow:visible;"/>
	</clipPath>
	<g class="st0">
		<path class="st1" d="M11.6,24.5h50.6v37.4H11.6V24.5z"/>
		<path class="st2" d="M0.8,33.1v31.7h63.5V1.3H0.8V33.1z M52,30.5c1.5,0.4,2.9,1.1,4,2.3c0.6,0.6,1.1,1.3,1.5,2
			c0,0.1-2.7,1.9-4.4,3c-0.1,0-0.3-0.2-0.6-0.6c-0.3-0.5-0.7-1-1.3-1.3c-0.5-0.3-1.1-0.5-1.7-0.5c-1.9-0.1-3.2,0.9-3.2,2.5
			c0,0.4,0.1,0.8,0.3,1.2c0.4,0.9,1.2,1.4,3.7,2.5c4.5,2,6.5,3.2,7.7,5.1c1.4,2,1.7,5.3,0.7,7.7c-1,2.6-3.5,4.4-7,5
			c-1.6,0.2-3.2,0.2-4.8-0.1c-2.5-0.4-4.7-1.6-6.5-3.4c-0.6-0.6-1.7-2.3-1.7-2.4c0.2-0.1,0.4-0.3,0.6-0.4l2.4-1.3l1.8-1.1l0.4,0.6
			c0.6,0.9,1.5,1.7,2.4,2.3c2,1.1,4.8,0.9,6.2-0.3c0.5-0.5,0.7-1.1,0.8-1.7c0.1-0.6-0.1-1.3-0.5-1.8c-0.5-0.7-1.5-1.3-4.4-2.5
			c-3.3-1.4-4.7-2.3-6-3.7c-0.8-0.9-1.4-2-1.7-3.2c-0.3-1.3-0.3-2.7-0.1-4.1c0.7-3.2,3-5.4,6.5-6C48.8,30.2,50.4,30.3,52,30.5
			L52,30.5z M37.1,33.2v2.6h-8.2v23.5H23V35.8h-8.3v-2.5c0-0.9,0-1.8,0.1-2.6c0,0,5.1,0,11.2,0H37L37.1,33.2z"/>
	</g>
</g>
</svg>
