<?xml version="1.0" encoding="utf-8"?>
<!-- Generator: Adobe Illustrator 24.1.0, SVG Export Plug-In . SVG Version: 6.00 Build 0)  -->
<svg version="1.1" baseProfile="basic" id="Camada_1"
	 xmlns="http://www.w3.org/2000/svg" xmlns:xlink="http://www.w3.org/1999/xlink" x="0px" y="0px" viewBox="0 0 65 65"
	 xml:space="preserve">
<style type="text/css">
	.st0{fill:#FF0000;}
</style>
<path class="st0" d="M8.5,16.4c3.9,3.1,7.9,6.3,11.9,9.4c1,0.8,1,0.8,2-0.1C28.9,19,35.5,12.4,42.1,5.7c0.5-0.5,0.9-0.6,1.5-0.3
	c4.1,1.6,8.1,3.3,12.2,4.8c0.6,0.3,0.9,0.6,0.9,1.3c0,14,0,27.9,0,41.9c0,0.7-0.2,1-0.9,1.3c-4.1,1.6-8.1,3.3-12.2,4.9
	c-0.6,0.3-1,0.1-1.4-0.3c-6.7-6.7-13.3-13.4-20-20c-0.2-0.2-0.5-0.4-0.8-0.7c-1.9,1.5-3.8,3-5.7,4.5c-2.5,1.9-4.9,3.9-7.4,5.8v-7.6
	l10.8-8.6L8.3,23.9L8.5,16.4z M42.4,22.4c-0.4,0.3-0.7,0.5-1,0.7c-3.8,3-7.6,5.9-11.4,8.8c-0.6,0.5-0.6,0.7,0,1.2
	c3.1,2.3,6.1,4.7,9.1,7.1c1,0.8,2,1.6,3.2,2.5C42.4,35.8,42.4,29.2,42.4,22.4z"/>
</svg>
