<?xml version="1.0" encoding="utf-8"?>
<!-- Generator: Adobe Illustrator 24.1.0, SVG Export Plug-In . SVG Version: 6.00 Build 0)  -->
<svg version="1.1" baseProfile="basic" id="Camada_1"
	 xmlns="http://www.w3.org/2000/svg" xmlns:xlink="http://www.w3.org/1999/xlink" x="0px" y="0px" viewBox="0 0 65 65"
	 xml:space="preserve">
<style type="text/css">
	.st0{fill:#FF0000;}
</style>
<g>
	<path class="st0" d="M33.6,4.1c0.5,0,1,0.1,1.5,0.1c5.1,0.5,9.8,2.2,14,5.2c6,4.4,9.9,10.2,11.3,17.6c1.8,10-0.9,18.7-8.1,25.8
		c-4.2,4.2-9.3,6.7-15.1,7.7c-7.8,1.2-14.9-0.4-21.3-5c-5.8-4.2-9.5-9.8-11.1-16.8c-0.3-1.5-0.4-3.1-0.7-4.6c0-0.2,0-0.3-0.1-0.5
		c0-0.7,0-1.5,0-2.2c0-0.2,0-0.3,0.1-0.5c0.2-1.5,0.3-3.1,0.7-4.6C6.5,18.8,10.6,12.9,17,8.7c3.9-2.6,8.2-4.1,12.9-4.5
		c0.5,0,1-0.1,1.5-0.1C32.1,4.1,32.9,4.1,33.6,4.1z M32.5,59.7c15,0,27.1-12.2,27.1-27.1c0-14.9-12.2-27.1-27.1-27.2
		C17.6,5.3,5.4,17.5,5.4,32.5C5.4,47.4,17.5,59.6,32.5,59.7z"/>
	<path class="st0" d="M26.4,47.4c-3-8.8-5.9-17.5-8.8-26.3c0.6,0,1.1-0.1,1.7-0.1c0.4,0,0.8-0.1,1.2-0.1c0.5-0.1,0.8-0.5,0.8-1
		c0-0.7-0.5-1.1-1.3-1c-1.8,0.1-3.6,0.2-5.5,0.3c-0.8,0-1.5,0-2.3,0c8.1-12.7,26.3-14.5,36.6-4.6c-1.4,0-2.6,0.5-3.4,1.6
		c-0.9,1.3-1.1,2.7-0.7,4.2c0.3,1.1,0.8,2,1.4,2.9c0.8,1.4,1.7,2.8,2.2,4.3c0.8,2.4,0.8,4.9,0.1,7.3c-1.2,4.1-2.4,8.1-3.7,12.2
		c0,0,0,0.1-0.1,0.2c-2.9-8.7-5.8-17.4-8.8-26.1c0.6,0,1.1-0.1,1.6-0.1c0.4,0,0.7-0.1,1.1-0.1c0.7-0.1,1.1-0.5,1-1.1
		c-0.1-0.6-0.5-0.9-1.2-0.9c-2.1,0.1-4.1,0.3-6.2,0.3c-2.1,0-4.2-0.2-6.3-0.3c-0.9,0-1.4,0.4-1.3,1.1c0,0.5,0.3,0.8,0.8,0.9
		c0.7,0.1,1.5,0.2,2.2,0.2c0.3,0,0.5,0.1,0.6,0.5c1.2,3.2,2.4,6.5,3.5,9.7c0.1,0.2,0.1,0.4,0,0.6C30,36.9,28.3,41.9,26.6,47
		C26.6,47.1,26.5,47.2,26.4,47.4z"/>
	<path class="st0" d="M25.6,55.9c2.4-7.1,4.8-14.1,7.3-21.2c2.6,7,5.1,13.9,7.6,20.8C35.6,57.2,30.7,57.3,25.6,55.9z"/>
	<path class="st0" d="M10.3,22.7c3.8,10.5,7.7,21,11.5,31.6c0,0-0.1,0-0.1,0.1c-5.6-2.9-9.7-7.2-11.9-13.2
		C7.4,35,7.6,28.8,10.2,22.7C10.2,22.7,10.2,22.7,10.3,22.7z"/>
	<path class="st0" d="M44.9,53.4c0-0.1,0.1-0.3,0.1-0.4c2.4-6.9,4.8-13.8,7.2-20.7c0.6-1.7,1.2-3.4,1.6-5.2c0.4-1.9,0.5-3.8,0.3-5.7
		c0-0.1,0-0.2,0-0.4c2.9,5.6,3.6,11.4,2,17.5C54.4,45.1,50.6,50,44.9,53.4C44.9,53.5,44.9,53.4,44.9,53.4z"/>
</g>
</svg>
