<?xml version="1.0" encoding="utf-8"?>
<!-- Generator: Adobe Illustrator 24.1.0, SVG Export Plug-In . SVG Version: 6.00 Build 0)  -->
<svg version="1.1" id="Camada_1" xmlns="http://www.w3.org/2000/svg" xmlns:xlink="http://www.w3.org/1999/xlink" x="0px" y="0px"
	 viewBox="0 0 32 32" style="enable-background:new 0 0 32 32;" xml:space="preserve">
<style type="text/css">
	.st0{fill:#FF0000;}
</style>
<path class="st0" d="M7.8,25.2C7.3,24.9,7,24.5,6.5,24c-0.2-0.3-0.5-0.6-0.7-0.8c-0.7-0.8-1.1-1.2-1.5-1.4C4,21.7,3.7,21.4,3.5,21
	c-0.2-0.3-0.2-0.7-0.1-1.1c0.1-0.4,0.4-0.7,0.7-0.8c0.3-0.2,0.7-0.2,1.1-0.1c1.1,0.4,1.8,1.1,2.8,2.3C8,21.2,8.6,22,8.7,22.1
	c0.3,0.3,0.5,0.5,0.6,0.6C9.7,23,10.2,23.1,11,23c0-0.6,0.1-1.1,0.3-1.6c-4.3-1.1-6.7-3.8-6.7-9.3c0-1.8,0.5-3.4,1.5-4.8
	C5.8,6.1,5.9,4.5,6.6,2.8c0.1-0.2,0.2-0.4,0.4-0.5C7.1,2.1,7.3,2,7.5,1.9c0.1,0,0.2-0.1,0.3-0.1c1.2-0.2,2.8,0.2,4.9,1.6
	C14,3.1,15.3,3,16.6,3c1.3,0,2.6,0.2,3.9,0.4c2.1-1.4,3.8-1.8,5-1.6c0.1,0,0.2,0,0.3,0.1C26,2,26.2,2.1,26.3,2.2
	c0.2,0.1,0.3,0.3,0.4,0.5c0.7,1.8,0.8,3.3,0.4,4.6c1,1.4,1.5,3,1.5,4.8c0,5.4-2.4,8.2-6.7,9.2c0.2,0.6,0.3,1.3,0.3,2
	c0,1.3,0,2.6,0,3.9c0.3,0.1,0.6,0.3,0.8,0.5c0.2,0.3,0.3,0.6,0.3,0.9c0,0.3-0.1,0.7-0.3,0.9s-0.5,0.4-0.8,0.5
	c-1.6,0.3-2.9-0.8-2.9-2.2l0-0.6l0-1c0-1,0-1.9,0-2.9c0-1-0.3-1.7-0.6-2c-1-0.8-0.5-2.4,0.8-2.5c4.3-0.5,6.3-2.1,6.3-6.7
	c0-1.4-0.5-2.5-1.3-3.5c-0.2-0.2-0.3-0.4-0.4-0.7c0-0.3,0-0.5,0.1-0.8c0.2-0.6,0.3-1.4,0.1-2.3l0,0c-0.7,0.2-1.6,0.6-2.7,1.4
	c-0.2,0.1-0.4,0.2-0.6,0.2c-0.2,0-0.4,0-0.6,0c-1.2-0.3-2.5-0.5-3.8-0.5c-1.3,0-2.6,0.2-3.8,0.5c-0.2,0.1-0.4,0.1-0.6,0
	c-0.2,0-0.4-0.1-0.6-0.2C10.6,5.5,9.7,5,9,4.8C8.8,5.8,8.9,6.5,9.1,7.1c0.1,0.3,0.1,0.5,0.1,0.8c0,0.3-0.2,0.5-0.4,0.7
	C8,9.6,7.5,10.8,7.5,12.1c0,4.6,2,6.3,6.3,6.7c1.3,0.1,1.7,1.7,0.8,2.5c-0.3,0.2-0.6,1.1-0.6,2v4.6c0,1.4-1.2,2.5-2.8,2.2
	c-0.3-0.1-0.6-0.2-0.8-0.5c-0.2-0.3-0.3-0.6-0.3-0.9c0-0.3,0.1-0.7,0.3-0.9c0.2-0.3,0.5-0.4,0.8-0.5v-1.4C9.7,26,8.6,25.7,7.8,25.2
	L7.8,25.2z"/>
</svg>
